%TF.GenerationSoftware,KiCad,Pcbnew,8.0.1*%
%TF.CreationDate,2024-04-19T14:44:52+05:30*%
%TF.ProjectId,Li-po_charger_with_BOOST,4c692d70-6f5f-4636-9861-726765725f77,rev?*%
%TF.SameCoordinates,Original*%
%TF.FileFunction,Copper,L1,Top*%
%TF.FilePolarity,Positive*%
%FSLAX46Y46*%
G04 Gerber Fmt 4.6, Leading zero omitted, Abs format (unit mm)*
G04 Created by KiCad (PCBNEW 8.0.1) date 2024-04-19 14:44:52*
%MOMM*%
%LPD*%
G01*
G04 APERTURE LIST*
G04 Aperture macros list*
%AMRoundRect*
0 Rectangle with rounded corners*
0 $1 Rounding radius*
0 $2 $3 $4 $5 $6 $7 $8 $9 X,Y pos of 4 corners*
0 Add a 4 corners polygon primitive as box body*
4,1,4,$2,$3,$4,$5,$6,$7,$8,$9,$2,$3,0*
0 Add four circle primitives for the rounded corners*
1,1,$1+$1,$2,$3*
1,1,$1+$1,$4,$5*
1,1,$1+$1,$6,$7*
1,1,$1+$1,$8,$9*
0 Add four rect primitives between the rounded corners*
20,1,$1+$1,$2,$3,$4,$5,0*
20,1,$1+$1,$4,$5,$6,$7,0*
20,1,$1+$1,$6,$7,$8,$9,0*
20,1,$1+$1,$8,$9,$2,$3,0*%
G04 Aperture macros list end*
%TA.AperFunction,EtchedComponent*%
%ADD10C,0.010000*%
%TD*%
%TA.AperFunction,SMDPad,CuDef*%
%ADD11R,1.350000X0.400000*%
%TD*%
%TA.AperFunction,ComponentPad*%
%ADD12O,0.800000X1.300000*%
%TD*%
%TA.AperFunction,ComponentPad*%
%ADD13O,1.500000X0.750000*%
%TD*%
%TA.AperFunction,SMDPad,CuDef*%
%ADD14R,1.550000X1.500000*%
%TD*%
%TA.AperFunction,SMDPad,CuDef*%
%ADD15RoundRect,0.250000X0.450000X-0.262500X0.450000X0.262500X-0.450000X0.262500X-0.450000X-0.262500X0*%
%TD*%
%TA.AperFunction,ComponentPad*%
%ADD16R,1.308000X1.308000*%
%TD*%
%TA.AperFunction,ComponentPad*%
%ADD17C,1.308000*%
%TD*%
%TA.AperFunction,ComponentPad*%
%ADD18R,2.000000X2.000000*%
%TD*%
%TA.AperFunction,SMDPad,CuDef*%
%ADD19RoundRect,0.250000X-0.262500X-0.450000X0.262500X-0.450000X0.262500X0.450000X-0.262500X0.450000X0*%
%TD*%
%TA.AperFunction,SMDPad,CuDef*%
%ADD20RoundRect,0.088500X-0.596500X-0.206500X0.596500X-0.206500X0.596500X0.206500X-0.596500X0.206500X0*%
%TD*%
%TA.AperFunction,SMDPad,CuDef*%
%ADD21RoundRect,0.088500X0.596500X0.206500X-0.596500X0.206500X-0.596500X-0.206500X0.596500X-0.206500X0*%
%TD*%
%TA.AperFunction,SMDPad,CuDef*%
%ADD22RoundRect,0.250000X1.000000X0.650000X-1.000000X0.650000X-1.000000X-0.650000X1.000000X-0.650000X0*%
%TD*%
%TA.AperFunction,SMDPad,CuDef*%
%ADD23RoundRect,0.250000X-0.475000X0.250000X-0.475000X-0.250000X0.475000X-0.250000X0.475000X0.250000X0*%
%TD*%
%TA.AperFunction,SMDPad,CuDef*%
%ADD24RoundRect,0.250000X0.475000X-0.250000X0.475000X0.250000X-0.475000X0.250000X-0.475000X-0.250000X0*%
%TD*%
%TA.AperFunction,SMDPad,CuDef*%
%ADD25RoundRect,0.088500X-0.516500X-0.206500X0.516500X-0.206500X0.516500X0.206500X-0.516500X0.206500X0*%
%TD*%
%TA.AperFunction,SMDPad,CuDef*%
%ADD26RoundRect,0.250000X0.262500X0.450000X-0.262500X0.450000X-0.262500X-0.450000X0.262500X-0.450000X0*%
%TD*%
%TA.AperFunction,SMDPad,CuDef*%
%ADD27R,0.600000X1.100000*%
%TD*%
%TA.AperFunction,SMDPad,CuDef*%
%ADD28RoundRect,0.042000X0.258000X-0.943000X0.258000X0.943000X-0.258000X0.943000X-0.258000X-0.943000X0*%
%TD*%
%TA.AperFunction,SMDPad,CuDef*%
%ADD29R,3.302000X2.413000*%
%TD*%
%TA.AperFunction,SMDPad,CuDef*%
%ADD30RoundRect,0.250000X-0.250000X-0.475000X0.250000X-0.475000X0.250000X0.475000X-0.250000X0.475000X0*%
%TD*%
%TA.AperFunction,SMDPad,CuDef*%
%ADD31RoundRect,0.218750X0.218750X0.256250X-0.218750X0.256250X-0.218750X-0.256250X0.218750X-0.256250X0*%
%TD*%
%TA.AperFunction,SMDPad,CuDef*%
%ADD32RoundRect,0.218750X-0.218750X-0.256250X0.218750X-0.256250X0.218750X0.256250X-0.218750X0.256250X0*%
%TD*%
%TA.AperFunction,SMDPad,CuDef*%
%ADD33RoundRect,0.218750X-0.218750X-0.381250X0.218750X-0.381250X0.218750X0.381250X-0.218750X0.381250X0*%
%TD*%
%TA.AperFunction,ViaPad*%
%ADD34C,0.600000*%
%TD*%
%TA.AperFunction,Conductor*%
%ADD35C,0.400000*%
%TD*%
%TA.AperFunction,Conductor*%
%ADD36C,0.200000*%
%TD*%
G04 APERTURE END LIST*
D10*
%TO.C,J2*%
X58401000Y-81356000D02*
X58427000Y-81358000D01*
X58453000Y-81361000D01*
X58479000Y-81366000D01*
X58504000Y-81372000D01*
X58530000Y-81379000D01*
X58554000Y-81388000D01*
X58578000Y-81398000D01*
X58602000Y-81409000D01*
X58625000Y-81422000D01*
X58647000Y-81436000D01*
X58669000Y-81450000D01*
X58690000Y-81466000D01*
X58710000Y-81483000D01*
X58729000Y-81501000D01*
X58747000Y-81520000D01*
X58764000Y-81540000D01*
X58780000Y-81561000D01*
X58794000Y-81583000D01*
X58808000Y-81605000D01*
X58821000Y-81628000D01*
X58832000Y-81652000D01*
X58842000Y-81676000D01*
X58851000Y-81700000D01*
X58858000Y-81726000D01*
X58864000Y-81751000D01*
X58869000Y-81777000D01*
X58872000Y-81803000D01*
X58874000Y-81829000D01*
X58875000Y-81855000D01*
X58875000Y-83000000D01*
X57325000Y-83000000D01*
X57325000Y-81855000D01*
X57326000Y-81829000D01*
X57328000Y-81803000D01*
X57331000Y-81777000D01*
X57336000Y-81751000D01*
X57342000Y-81726000D01*
X57349000Y-81700000D01*
X57358000Y-81676000D01*
X57368000Y-81652000D01*
X57379000Y-81628000D01*
X57392000Y-81605000D01*
X57406000Y-81583000D01*
X57420000Y-81561000D01*
X57436000Y-81540000D01*
X57453000Y-81520000D01*
X57471000Y-81501000D01*
X57490000Y-81483000D01*
X57510000Y-81466000D01*
X57531000Y-81450000D01*
X57553000Y-81436000D01*
X57575000Y-81422000D01*
X57598000Y-81409000D01*
X57622000Y-81398000D01*
X57646000Y-81388000D01*
X57670000Y-81379000D01*
X57696000Y-81372000D01*
X57721000Y-81366000D01*
X57747000Y-81361000D01*
X57773000Y-81358000D01*
X57799000Y-81356000D01*
X57825000Y-81355000D01*
X58375000Y-81355000D01*
X58401000Y-81356000D01*
%TA.AperFunction,EtchedComponent*%
G36*
X58401000Y-81356000D02*
G01*
X58427000Y-81358000D01*
X58453000Y-81361000D01*
X58479000Y-81366000D01*
X58504000Y-81372000D01*
X58530000Y-81379000D01*
X58554000Y-81388000D01*
X58578000Y-81398000D01*
X58602000Y-81409000D01*
X58625000Y-81422000D01*
X58647000Y-81436000D01*
X58669000Y-81450000D01*
X58690000Y-81466000D01*
X58710000Y-81483000D01*
X58729000Y-81501000D01*
X58747000Y-81520000D01*
X58764000Y-81540000D01*
X58780000Y-81561000D01*
X58794000Y-81583000D01*
X58808000Y-81605000D01*
X58821000Y-81628000D01*
X58832000Y-81652000D01*
X58842000Y-81676000D01*
X58851000Y-81700000D01*
X58858000Y-81726000D01*
X58864000Y-81751000D01*
X58869000Y-81777000D01*
X58872000Y-81803000D01*
X58874000Y-81829000D01*
X58875000Y-81855000D01*
X58875000Y-83000000D01*
X57325000Y-83000000D01*
X57325000Y-81855000D01*
X57326000Y-81829000D01*
X57328000Y-81803000D01*
X57331000Y-81777000D01*
X57336000Y-81751000D01*
X57342000Y-81726000D01*
X57349000Y-81700000D01*
X57358000Y-81676000D01*
X57368000Y-81652000D01*
X57379000Y-81628000D01*
X57392000Y-81605000D01*
X57406000Y-81583000D01*
X57420000Y-81561000D01*
X57436000Y-81540000D01*
X57453000Y-81520000D01*
X57471000Y-81501000D01*
X57490000Y-81483000D01*
X57510000Y-81466000D01*
X57531000Y-81450000D01*
X57553000Y-81436000D01*
X57575000Y-81422000D01*
X57598000Y-81409000D01*
X57622000Y-81398000D01*
X57646000Y-81388000D01*
X57670000Y-81379000D01*
X57696000Y-81372000D01*
X57721000Y-81366000D01*
X57747000Y-81361000D01*
X57773000Y-81358000D01*
X57799000Y-81356000D01*
X57825000Y-81355000D01*
X58375000Y-81355000D01*
X58401000Y-81356000D01*
G37*
%TD.AperFunction*%
X58875000Y-88745000D02*
X58874000Y-88771000D01*
X58872000Y-88797000D01*
X58869000Y-88823000D01*
X58864000Y-88849000D01*
X58858000Y-88874000D01*
X58851000Y-88900000D01*
X58842000Y-88924000D01*
X58832000Y-88948000D01*
X58821000Y-88972000D01*
X58808000Y-88995000D01*
X58794000Y-89017000D01*
X58780000Y-89039000D01*
X58764000Y-89060000D01*
X58747000Y-89080000D01*
X58729000Y-89099000D01*
X58710000Y-89117000D01*
X58690000Y-89134000D01*
X58669000Y-89150000D01*
X58647000Y-89164000D01*
X58625000Y-89178000D01*
X58602000Y-89191000D01*
X58578000Y-89202000D01*
X58554000Y-89212000D01*
X58530000Y-89221000D01*
X58504000Y-89228000D01*
X58479000Y-89234000D01*
X58453000Y-89239000D01*
X58427000Y-89242000D01*
X58401000Y-89244000D01*
X58375000Y-89245000D01*
X57825000Y-89245000D01*
X57799000Y-89244000D01*
X57773000Y-89242000D01*
X57747000Y-89239000D01*
X57721000Y-89234000D01*
X57696000Y-89228000D01*
X57670000Y-89221000D01*
X57646000Y-89212000D01*
X57622000Y-89202000D01*
X57598000Y-89191000D01*
X57575000Y-89178000D01*
X57553000Y-89164000D01*
X57531000Y-89150000D01*
X57510000Y-89134000D01*
X57490000Y-89117000D01*
X57471000Y-89099000D01*
X57453000Y-89080000D01*
X57436000Y-89060000D01*
X57420000Y-89039000D01*
X57406000Y-89017000D01*
X57392000Y-88995000D01*
X57379000Y-88972000D01*
X57368000Y-88948000D01*
X57358000Y-88924000D01*
X57349000Y-88900000D01*
X57342000Y-88874000D01*
X57336000Y-88849000D01*
X57331000Y-88823000D01*
X57328000Y-88797000D01*
X57326000Y-88771000D01*
X57325000Y-88745000D01*
X57325000Y-87600000D01*
X58875000Y-87600000D01*
X58875000Y-88745000D01*
%TA.AperFunction,EtchedComponent*%
G36*
X58875000Y-88745000D02*
G01*
X58874000Y-88771000D01*
X58872000Y-88797000D01*
X58869000Y-88823000D01*
X58864000Y-88849000D01*
X58858000Y-88874000D01*
X58851000Y-88900000D01*
X58842000Y-88924000D01*
X58832000Y-88948000D01*
X58821000Y-88972000D01*
X58808000Y-88995000D01*
X58794000Y-89017000D01*
X58780000Y-89039000D01*
X58764000Y-89060000D01*
X58747000Y-89080000D01*
X58729000Y-89099000D01*
X58710000Y-89117000D01*
X58690000Y-89134000D01*
X58669000Y-89150000D01*
X58647000Y-89164000D01*
X58625000Y-89178000D01*
X58602000Y-89191000D01*
X58578000Y-89202000D01*
X58554000Y-89212000D01*
X58530000Y-89221000D01*
X58504000Y-89228000D01*
X58479000Y-89234000D01*
X58453000Y-89239000D01*
X58427000Y-89242000D01*
X58401000Y-89244000D01*
X58375000Y-89245000D01*
X57825000Y-89245000D01*
X57799000Y-89244000D01*
X57773000Y-89242000D01*
X57747000Y-89239000D01*
X57721000Y-89234000D01*
X57696000Y-89228000D01*
X57670000Y-89221000D01*
X57646000Y-89212000D01*
X57622000Y-89202000D01*
X57598000Y-89191000D01*
X57575000Y-89178000D01*
X57553000Y-89164000D01*
X57531000Y-89150000D01*
X57510000Y-89134000D01*
X57490000Y-89117000D01*
X57471000Y-89099000D01*
X57453000Y-89080000D01*
X57436000Y-89060000D01*
X57420000Y-89039000D01*
X57406000Y-89017000D01*
X57392000Y-88995000D01*
X57379000Y-88972000D01*
X57368000Y-88948000D01*
X57358000Y-88924000D01*
X57349000Y-88900000D01*
X57342000Y-88874000D01*
X57336000Y-88849000D01*
X57331000Y-88823000D01*
X57328000Y-88797000D01*
X57326000Y-88771000D01*
X57325000Y-88745000D01*
X57325000Y-87600000D01*
X58875000Y-87600000D01*
X58875000Y-88745000D01*
G37*
%TD.AperFunction*%
%TD*%
D11*
%TO.P,J2,1,1*%
%TO.N,/VBUS*%
X60775000Y-84000000D03*
%TO.P,J2,2,2*%
%TO.N,unconnected-(J2-Pad2)*%
X60775000Y-84650000D03*
%TO.P,J2,3,3*%
%TO.N,unconnected-(J2-Pad3)*%
X60775000Y-85300000D03*
%TO.P,J2,4,4*%
%TO.N,unconnected-(J2-Pad4)*%
X60775000Y-85950000D03*
%TO.P,J2,5,5*%
%TO.N,GND*%
X60775000Y-86600000D03*
D12*
%TO.P,J2,S1,SHIELD*%
%TO.N,unconnected-(J2-SHIELD-PadS1)_0*%
X60800000Y-82650000D03*
%TO.P,J2,S2,SHIELD*%
%TO.N,unconnected-(J2-SHIELD-PadS1)_1*%
X60800000Y-87950000D03*
D13*
%TO.P,J2,S3,SHIELD*%
%TO.N,unconnected-(J2-SHIELD-PadS1)_3*%
X58100000Y-81775000D03*
D14*
%TO.P,J2,S4,SHIELD*%
%TO.N,unconnected-(J2-SHIELD-PadS1)_2*%
X58100000Y-84300000D03*
%TO.P,J2,S5,SHIELD*%
%TO.N,unconnected-(J2-SHIELD-PadS1)*%
X58100000Y-86300000D03*
D13*
%TO.P,J2,S6,SHIELD*%
%TO.N,unconnected-(J2-SHIELD-PadS1)_4*%
X58100000Y-88825000D03*
%TD*%
D15*
%TO.P,R6,1*%
%TO.N,Net-(U2-FB)*%
X90200000Y-86512500D03*
%TO.P,R6,2*%
%TO.N,Net-(D3-K)*%
X90200000Y-84687500D03*
%TD*%
D16*
%TO.P,S1,1,1*%
%TO.N,Net-(U2-EN)*%
X78900000Y-78200000D03*
D17*
%TO.P,S1,2,2*%
%TO.N,/BAT*%
X80900000Y-78200000D03*
%TO.P,S1,3,3*%
%TO.N,unconnected-(S1-Pad3)*%
X82900000Y-78200000D03*
%TD*%
D18*
%TO.P,H5,1,1*%
%TO.N,Net-(D3-K)*%
X88600000Y-91800000D03*
%TD*%
D19*
%TO.P,R7,1*%
%TO.N,GND*%
X88287500Y-89200000D03*
%TO.P,R7,2*%
%TO.N,Net-(U2-FB)*%
X90112500Y-89200000D03*
%TD*%
D20*
%TO.P,U2,1,SW*%
%TO.N,Net-(D3-A)*%
X82230000Y-85250000D03*
%TO.P,U2,2,GND*%
%TO.N,GND*%
X82230000Y-86200000D03*
%TO.P,U2,3,FB*%
%TO.N,Net-(U2-FB)*%
X82230000Y-87150000D03*
D21*
%TO.P,U2,4,EN*%
%TO.N,Net-(U2-EN)*%
X84570000Y-87150000D03*
%TO.P,U2,5,IN*%
X84570000Y-86200000D03*
%TO.P,U2,6*%
%TO.N,N/C*%
X84570000Y-85250000D03*
%TD*%
D18*
%TO.P,H1,1,1*%
%TO.N,/BAT*%
X92600000Y-91800000D03*
%TD*%
D22*
%TO.P,D3,1,K*%
%TO.N,Net-(D3-K)*%
X92400000Y-81800000D03*
%TO.P,D3,2,A*%
%TO.N,Net-(D3-A)*%
X88400000Y-81800000D03*
%TD*%
D19*
%TO.P,R2,1*%
%TO.N,Net-(U1-PROG)*%
X68687500Y-90400000D03*
%TO.P,R2,2*%
%TO.N,GND*%
X70512500Y-90400000D03*
%TD*%
D23*
%TO.P,C5,1*%
%TO.N,/VBUS*%
X64000000Y-84450000D03*
%TO.P,C5,2*%
%TO.N,GND*%
X64000000Y-86350000D03*
%TD*%
D24*
%TO.P,C3,1*%
%TO.N,Net-(U2-EN)*%
X86800000Y-87187500D03*
%TO.P,C3,2*%
%TO.N,GND*%
X86800000Y-85287500D03*
%TD*%
D23*
%TO.P,C4,1*%
%TO.N,Net-(D3-K)*%
X93000000Y-85537500D03*
%TO.P,C4,2*%
%TO.N,GND*%
X93000000Y-87437500D03*
%TD*%
D25*
%TO.P,Q1,1*%
%TO.N,GND*%
X73745000Y-89050000D03*
%TO.P,Q1,2*%
%TO.N,unconnected-(Q1-Pad2)_0*%
X73745000Y-90000000D03*
%TO.P,Q1,3*%
%TO.N,/BAT-*%
X73745000Y-90950000D03*
%TO.P,Q1,4*%
%TO.N,Net-(IC1-OD)*%
X76255000Y-90950000D03*
%TO.P,Q1,5*%
%TO.N,unconnected-(Q1-Pad2)*%
X76255000Y-90000000D03*
%TO.P,Q1,6*%
%TO.N,Net-(IC1-OC)*%
X76255000Y-89050000D03*
%TD*%
D26*
%TO.P,R3,1*%
%TO.N,Net-(D2-K)*%
X73025000Y-79800000D03*
%TO.P,R3,2*%
%TO.N,Net-(U1-~{STDBY})*%
X71200000Y-79800000D03*
%TD*%
%TO.P,R1,1*%
%TO.N,Net-(U1-~{CHRG})*%
X68925000Y-79745000D03*
%TO.P,R1,2*%
%TO.N,Net-(D1-K)*%
X67100000Y-79745000D03*
%TD*%
D27*
%TO.P,IC1,1,OD*%
%TO.N,Net-(IC1-OD)*%
X74050000Y-86500000D03*
%TO.P,IC1,2,CS*%
%TO.N,Net-(IC1-CS)*%
X75000000Y-86500000D03*
%TO.P,IC1,3,OC*%
%TO.N,Net-(IC1-OC)*%
X75950000Y-86500000D03*
%TO.P,IC1,4,TD*%
%TO.N,unconnected-(IC1-TD-Pad4)*%
X75950000Y-83900000D03*
%TO.P,IC1,5,VCC*%
%TO.N,Net-(IC1-VCC)*%
X75000000Y-83960000D03*
%TO.P,IC1,6,GND*%
%TO.N,/BAT-*%
X74050000Y-83900000D03*
%TD*%
D28*
%TO.P,U1,1,TEMP*%
%TO.N,GND*%
X67495000Y-87675000D03*
%TO.P,U1,2,PROG*%
%TO.N,Net-(U1-PROG)*%
X68765000Y-87675000D03*
%TO.P,U1,3,GND*%
%TO.N,GND*%
X70035000Y-87675000D03*
%TO.P,U1,4,VCC*%
%TO.N,/VBUS*%
X71305000Y-87675000D03*
%TO.P,U1,5,BAT*%
%TO.N,/BAT*%
X71305000Y-82725000D03*
%TO.P,U1,6,~{STDBY}*%
%TO.N,Net-(U1-~{STDBY})*%
X70035000Y-82725000D03*
%TO.P,U1,7,~{CHRG}*%
%TO.N,Net-(U1-~{CHRG})*%
X68765000Y-82725000D03*
%TO.P,U1,8,CE*%
%TO.N,/VBUS*%
X67495000Y-82725000D03*
D29*
%TO.P,U1,9,EP*%
%TO.N,unconnected-(U1-EP-Pad9)*%
X69400000Y-85200000D03*
%TD*%
D18*
%TO.P,H4,1,1*%
%TO.N,GND*%
X88800000Y-78400000D03*
%TD*%
D30*
%TO.P,C2,1*%
%TO.N,/BAT-*%
X74050000Y-81800000D03*
%TO.P,C2,2*%
%TO.N,Net-(IC1-VCC)*%
X75950000Y-81800000D03*
%TD*%
D31*
%TO.P,D2,1,K*%
%TO.N,Net-(D2-K)*%
X72587500Y-77600000D03*
%TO.P,D2,2,A*%
%TO.N,/VBUS*%
X71012500Y-77600000D03*
%TD*%
D18*
%TO.P,H2,1,1*%
%TO.N,/BAT-*%
X92800000Y-78400000D03*
%TD*%
D32*
%TO.P,D1,1,K*%
%TO.N,Net-(D1-K)*%
X67225000Y-77600000D03*
%TO.P,D1,2,A*%
%TO.N,/VBUS*%
X68800000Y-77600000D03*
%TD*%
D19*
%TO.P,R4,1*%
%TO.N,Net-(IC1-VCC)*%
X78775000Y-81800000D03*
%TO.P,R4,2*%
%TO.N,/BAT*%
X80600000Y-81800000D03*
%TD*%
D33*
%TO.P,L1,1,1*%
%TO.N,Net-(U2-EN)*%
X83600000Y-82600000D03*
%TO.P,L1,2,2*%
%TO.N,Net-(D3-A)*%
X85725000Y-82600000D03*
%TD*%
D19*
%TO.P,R5,1*%
%TO.N,Net-(IC1-CS)*%
X77975000Y-87000000D03*
%TO.P,R5,2*%
%TO.N,GND*%
X79800000Y-87000000D03*
%TD*%
D34*
%TO.N,/BAT-*%
X73000000Y-84000000D03*
X72800000Y-82400000D03*
%TO.N,/VBUS*%
X67204100Y-84810000D03*
X72108500Y-87270600D03*
%TO.N,GND*%
X70572500Y-89114000D03*
X87904000Y-84599800D03*
X80929100Y-87000000D03*
X94242500Y-87257000D03*
X89064400Y-90214900D03*
%TD*%
D35*
%TO.N,GND*%
X62515600Y-86600000D02*
X60775000Y-86600000D01*
D36*
%TO.N,/VBUS*%
X60775000Y-84000000D02*
X63550000Y-84000000D01*
X63550000Y-84000000D02*
X64000000Y-84450000D01*
%TO.N,/BAT*%
X71605000Y-83025000D02*
X75000000Y-83025000D01*
X71305000Y-82725000D02*
X71605000Y-83025000D01*
X79375000Y-83025000D02*
X80600000Y-81800000D01*
X75000000Y-83025000D02*
X79375000Y-83025000D01*
X79594100Y-76894100D02*
X80900000Y-78200000D01*
X76253100Y-76894100D02*
X79594100Y-76894100D01*
X75000000Y-78147200D02*
X76253100Y-76894100D01*
X75000000Y-83025000D02*
X75000000Y-78147200D01*
%TO.N,/BAT-*%
X73450000Y-82400000D02*
X72800000Y-82400000D01*
X74050000Y-81800000D02*
X73450000Y-82400000D01*
X73000000Y-84000000D02*
X73325000Y-84000000D01*
X73950000Y-84000000D02*
X74050000Y-83900000D01*
X73325000Y-84000000D02*
X73950000Y-84000000D01*
X74145700Y-90950000D02*
X73745000Y-90950000D01*
X74652100Y-90443600D02*
X74145700Y-90950000D01*
X74652100Y-88601800D02*
X74652100Y-90443600D01*
X73325000Y-87274700D02*
X74652100Y-88601800D01*
X73325000Y-84000000D02*
X73325000Y-87274700D01*
%TO.N,Net-(U2-FB)*%
X83091500Y-88011500D02*
X88924000Y-88011500D01*
X82230000Y-87150000D02*
X83091500Y-88011500D01*
X90112500Y-89200000D02*
X88924000Y-88011500D01*
X88924000Y-87788500D02*
X90200000Y-86512500D01*
X88924000Y-88011500D02*
X88924000Y-87788500D01*
%TO.N,Net-(U1-~{STDBY})*%
X70035000Y-80965000D02*
X70035000Y-82725000D01*
X71200000Y-79800000D02*
X70035000Y-80965000D01*
D35*
%TO.N,Net-(U1-PROG)*%
X68687500Y-87752500D02*
X68765000Y-87675000D01*
X68687500Y-90400000D02*
X68687500Y-87752500D01*
D36*
%TO.N,Net-(U1-~{CHRG})*%
X68925000Y-82565000D02*
X68765000Y-82725000D01*
X68925000Y-79745000D02*
X68925000Y-82565000D01*
%TO.N,Net-(IC1-OC)*%
X76255000Y-87656700D02*
X76255000Y-89050000D01*
X75950000Y-87351700D02*
X76255000Y-87656700D01*
X75950000Y-86500000D02*
X75950000Y-87351700D01*
%TO.N,Net-(IC1-CS)*%
X76623300Y-85648300D02*
X77975000Y-87000000D01*
X75000000Y-85648300D02*
X76623300Y-85648300D01*
X75000000Y-86500000D02*
X75000000Y-85648300D01*
%TO.N,Net-(IC1-OD)*%
X74050000Y-86500000D02*
X74050000Y-87351700D01*
X75142400Y-88444100D02*
X74050000Y-87351700D01*
X75142400Y-90172100D02*
X75142400Y-88444100D01*
X75920300Y-90950000D02*
X75142400Y-90172100D01*
X76255000Y-90950000D02*
X75920300Y-90950000D01*
%TO.N,Net-(D3-A)*%
X83075000Y-85250000D02*
X85725000Y-82600000D01*
X82230000Y-85250000D02*
X83075000Y-85250000D01*
X86525000Y-81800000D02*
X85725000Y-82600000D01*
X88400000Y-81800000D02*
X86525000Y-81800000D01*
D35*
%TO.N,Net-(D2-K)*%
X72587500Y-79362500D02*
X73025000Y-79800000D01*
X72587500Y-77600000D02*
X72587500Y-79362500D01*
%TO.N,Net-(D1-K)*%
X67100000Y-77725000D02*
X67225000Y-77600000D01*
X67100000Y-79745000D02*
X67100000Y-77725000D01*
D36*
%TO.N,/VBUS*%
X68800000Y-77600000D02*
X71012500Y-77600000D01*
X67962500Y-78437500D02*
X68800000Y-77600000D01*
X67962500Y-82037500D02*
X67962500Y-78437500D01*
X67495000Y-82505000D02*
X67962500Y-82037500D01*
X67495000Y-82725000D02*
X67495000Y-82505000D01*
D35*
X65770000Y-84450000D02*
X66048300Y-84171700D01*
X64000000Y-84450000D02*
X65770000Y-84450000D01*
X66048300Y-84171700D02*
X67495000Y-82725000D01*
D36*
X66565800Y-84171700D02*
X67204100Y-84810000D01*
X66048300Y-84171700D02*
X66565800Y-84171700D01*
X72108500Y-87270700D02*
X72108500Y-87270600D01*
X71709300Y-87270700D02*
X72108500Y-87270700D01*
X71305000Y-87675000D02*
X71709300Y-87270700D01*
%TO.N,Net-(D3-K)*%
X92400000Y-82487500D02*
X90200000Y-84687500D01*
X92400000Y-81800000D02*
X92400000Y-82487500D01*
X88600000Y-91800000D02*
X89901700Y-91800000D01*
X91212000Y-90489700D02*
X89901700Y-91800000D01*
X91212000Y-85537500D02*
X91212000Y-90489700D01*
X93000000Y-85537500D02*
X91212000Y-85537500D01*
X91050000Y-85537500D02*
X90200000Y-84687500D01*
X91212000Y-85537500D02*
X91050000Y-85537500D01*
%TO.N,Net-(U2-EN)*%
X84570000Y-86200000D02*
X84570000Y-87150000D01*
X78900000Y-78200000D02*
X79855700Y-78200000D01*
X84607500Y-87187500D02*
X86800000Y-87187500D01*
X84570000Y-87150000D02*
X84607500Y-87187500D01*
X79855700Y-78527900D02*
X79855700Y-78200000D01*
X83727100Y-82399300D02*
X79855700Y-78527900D01*
X85550100Y-80576300D02*
X83727100Y-82399300D01*
X89610000Y-80576300D02*
X85550100Y-80576300D01*
X89955300Y-80921600D02*
X89610000Y-80576300D01*
X89955300Y-83428400D02*
X89955300Y-80921600D01*
X88774300Y-84609400D02*
X89955300Y-83428400D01*
X88774300Y-85213200D02*
X88774300Y-84609400D01*
X86800000Y-87187500D02*
X88774300Y-85213200D01*
X83600000Y-82526400D02*
X83600000Y-82600000D01*
X83727100Y-82399300D02*
X83600000Y-82526400D01*
%TO.N,Net-(IC1-VCC)*%
X75000000Y-83960000D02*
X75000000Y-84811700D01*
X79162900Y-84811700D02*
X75000000Y-84811700D01*
X81426400Y-82548200D02*
X79162900Y-84811700D01*
X81426400Y-81132400D02*
X81426400Y-82548200D01*
X81050300Y-80756300D02*
X81426400Y-81132400D01*
X79818700Y-80756300D02*
X81050300Y-80756300D01*
X78775000Y-81800000D02*
X79818700Y-80756300D01*
X75950000Y-81800000D02*
X78775000Y-81800000D01*
D35*
%TO.N,GND*%
X70512500Y-90400000D02*
X70512500Y-89000000D01*
X66170000Y-86350000D02*
X67495000Y-87675000D01*
X64000000Y-86350000D02*
X66170000Y-86350000D01*
X70512500Y-88152500D02*
X70035000Y-87675000D01*
X70512500Y-89000000D02*
X70512500Y-88152500D01*
X73735000Y-89060000D02*
X70572500Y-89060000D01*
X73745000Y-89050000D02*
X73735000Y-89060000D01*
X70572500Y-89060000D02*
X70512500Y-89000000D01*
D36*
X70572500Y-89114000D02*
X70572500Y-89060000D01*
D35*
X63750000Y-86600000D02*
X64000000Y-86350000D01*
X62515600Y-86600000D02*
X63750000Y-86600000D01*
D36*
X87487700Y-84599800D02*
X86800000Y-85287500D01*
X87904000Y-84599800D02*
X87487700Y-84599800D01*
X79800000Y-87000000D02*
X80929100Y-87000000D01*
X81729100Y-86200000D02*
X82230000Y-86200000D01*
X80929100Y-87000000D02*
X81729100Y-86200000D01*
X93180500Y-87257000D02*
X93000000Y-87437500D01*
X94242500Y-87257000D02*
X93180500Y-87257000D01*
X88287500Y-89438000D02*
X88287500Y-89200000D01*
X89064400Y-90214900D02*
X88287500Y-89438000D01*
%TD*%
%TA.AperFunction,Conductor*%
%TO.N,GND*%
G36*
X95042539Y-75920185D02*
G01*
X95088294Y-75972989D01*
X95099500Y-76024500D01*
X95099500Y-93175500D01*
X95079815Y-93242539D01*
X95027011Y-93288294D01*
X94975500Y-93299500D01*
X93800520Y-93299500D01*
X93733481Y-93279815D01*
X93687726Y-93227011D01*
X93677782Y-93157853D01*
X93706807Y-93094297D01*
X93750430Y-93062067D01*
X93772765Y-93052206D01*
X93852206Y-92972765D01*
X93897585Y-92869991D01*
X93900500Y-92844865D01*
X93900499Y-90755136D01*
X93900497Y-90755117D01*
X93897586Y-90730012D01*
X93897585Y-90730010D01*
X93897585Y-90730009D01*
X93852206Y-90627235D01*
X93772765Y-90547794D01*
X93735396Y-90531294D01*
X93669992Y-90502415D01*
X93644868Y-90499500D01*
X93644865Y-90499500D01*
X91736500Y-90499500D01*
X91669461Y-90479815D01*
X91623706Y-90427011D01*
X91612500Y-90375500D01*
X91612500Y-88073983D01*
X91632185Y-88006944D01*
X91684989Y-87961189D01*
X91754147Y-87951245D01*
X91817703Y-87980270D01*
X91842039Y-88008886D01*
X91932684Y-88155845D01*
X92056654Y-88279815D01*
X92205875Y-88371856D01*
X92205880Y-88371858D01*
X92372302Y-88427005D01*
X92372309Y-88427006D01*
X92475019Y-88437499D01*
X92749999Y-88437499D01*
X92750000Y-88437498D01*
X92750000Y-87687500D01*
X93250000Y-87687500D01*
X93250000Y-88437499D01*
X93524972Y-88437499D01*
X93524986Y-88437498D01*
X93627697Y-88427005D01*
X93794119Y-88371858D01*
X93794124Y-88371856D01*
X93943345Y-88279815D01*
X94067315Y-88155845D01*
X94159356Y-88006624D01*
X94159358Y-88006619D01*
X94214505Y-87840197D01*
X94214506Y-87840190D01*
X94224999Y-87737486D01*
X94225000Y-87737473D01*
X94225000Y-87687500D01*
X93250000Y-87687500D01*
X92750000Y-87687500D01*
X92750000Y-87311500D01*
X92769685Y-87244461D01*
X92822489Y-87198706D01*
X92874000Y-87187500D01*
X94224999Y-87187500D01*
X94224999Y-87137528D01*
X94224998Y-87137513D01*
X94214505Y-87034802D01*
X94159358Y-86868380D01*
X94159356Y-86868375D01*
X94067315Y-86719154D01*
X93943345Y-86595184D01*
X93794124Y-86503143D01*
X93794121Y-86503142D01*
X93772241Y-86495892D01*
X93714797Y-86456119D01*
X93687974Y-86391603D01*
X93700289Y-86322827D01*
X93741605Y-86278332D01*
X93740584Y-86276986D01*
X93867922Y-86180422D01*
X93906299Y-86129815D01*
X93959361Y-86059842D01*
X94014877Y-85919064D01*
X94025500Y-85830602D01*
X94025500Y-85244398D01*
X94014877Y-85155936D01*
X93959361Y-85015158D01*
X93959360Y-85015157D01*
X93959360Y-85015156D01*
X93867922Y-84894577D01*
X93747343Y-84803139D01*
X93606561Y-84747622D01*
X93560926Y-84742142D01*
X93518102Y-84737000D01*
X92481898Y-84737000D01*
X92442853Y-84741688D01*
X92393438Y-84747622D01*
X92252656Y-84803139D01*
X92132077Y-84894577D01*
X92040638Y-85015158D01*
X92040637Y-85015160D01*
X92023550Y-85058490D01*
X91980644Y-85113634D01*
X91914736Y-85136827D01*
X91908196Y-85137000D01*
X91323001Y-85137000D01*
X91255962Y-85117315D01*
X91210207Y-85064511D01*
X91199886Y-84998214D01*
X91200500Y-84993101D01*
X91200500Y-84381897D01*
X91193909Y-84327014D01*
X91205459Y-84258106D01*
X91229340Y-84224551D01*
X92417074Y-83036819D01*
X92478397Y-83003334D01*
X92504755Y-83000500D01*
X93443097Y-83000500D01*
X93443102Y-83000500D01*
X93531564Y-82989877D01*
X93672342Y-82934361D01*
X93792922Y-82842922D01*
X93884361Y-82722342D01*
X93939877Y-82581564D01*
X93950500Y-82493102D01*
X93950500Y-81106898D01*
X93939877Y-81018436D01*
X93884361Y-80877658D01*
X93884360Y-80877657D01*
X93884360Y-80877656D01*
X93792922Y-80757077D01*
X93672343Y-80665639D01*
X93531561Y-80610122D01*
X93485926Y-80604642D01*
X93443102Y-80599500D01*
X91356898Y-80599500D01*
X91317853Y-80604188D01*
X91268438Y-80610122D01*
X91127656Y-80665639D01*
X91007077Y-80757077D01*
X90915639Y-80877656D01*
X90860122Y-81018438D01*
X90854642Y-81064075D01*
X90849500Y-81106898D01*
X90849500Y-82493102D01*
X90853282Y-82524597D01*
X90860122Y-82581561D01*
X90860122Y-82581563D01*
X90860123Y-82581564D01*
X90867759Y-82600927D01*
X90915639Y-82722343D01*
X91007077Y-82842922D01*
X91046727Y-82872989D01*
X91127658Y-82934361D01*
X91137594Y-82938279D01*
X91192740Y-82981183D01*
X91215935Y-83047090D01*
X91199816Y-83115075D01*
X91179789Y-83141316D01*
X90482926Y-83838181D01*
X90421603Y-83871666D01*
X90395245Y-83874500D01*
X90373618Y-83874500D01*
X90306579Y-83854815D01*
X90260824Y-83802011D01*
X90250880Y-83732853D01*
X90272405Y-83681748D01*
X90271716Y-83681351D01*
X90274884Y-83675863D01*
X90275243Y-83675012D01*
X90275772Y-83674320D01*
X90275780Y-83674313D01*
X90328507Y-83582988D01*
X90355800Y-83481127D01*
X90355800Y-83375673D01*
X90355800Y-80868873D01*
X90340058Y-80810123D01*
X90328507Y-80767012D01*
X90275780Y-80675687D01*
X89855913Y-80255820D01*
X89810250Y-80229456D01*
X89764589Y-80203093D01*
X89713657Y-80189446D01*
X89662727Y-80175800D01*
X85497373Y-80175800D01*
X85395511Y-80203093D01*
X85381139Y-80211392D01*
X85381138Y-80211392D01*
X85304190Y-80255817D01*
X85304185Y-80255821D01*
X83896825Y-81663181D01*
X83835502Y-81696666D01*
X83809144Y-81699500D01*
X83645055Y-81699500D01*
X83578016Y-81679815D01*
X83557374Y-81663181D01*
X81342037Y-79447844D01*
X87300000Y-79447844D01*
X87306401Y-79507372D01*
X87306403Y-79507379D01*
X87356645Y-79642086D01*
X87356649Y-79642093D01*
X87442809Y-79757187D01*
X87442812Y-79757190D01*
X87557906Y-79843350D01*
X87557913Y-79843354D01*
X87692620Y-79893596D01*
X87692627Y-79893598D01*
X87752155Y-79899999D01*
X87752172Y-79900000D01*
X88550000Y-79900000D01*
X88550000Y-78833012D01*
X88607007Y-78865925D01*
X88734174Y-78900000D01*
X88865826Y-78900000D01*
X88992993Y-78865925D01*
X89050000Y-78833012D01*
X89050000Y-79900000D01*
X89847828Y-79900000D01*
X89847844Y-79899999D01*
X89907372Y-79893598D01*
X89907379Y-79893596D01*
X90042086Y-79843354D01*
X90042093Y-79843350D01*
X90157187Y-79757190D01*
X90157190Y-79757187D01*
X90243350Y-79642093D01*
X90243354Y-79642086D01*
X90293596Y-79507379D01*
X90293598Y-79507372D01*
X90299999Y-79447844D01*
X90300000Y-79447827D01*
X90300000Y-79444856D01*
X91499500Y-79444856D01*
X91499502Y-79444882D01*
X91502413Y-79469987D01*
X91502415Y-79469991D01*
X91547793Y-79572764D01*
X91547794Y-79572765D01*
X91627235Y-79652206D01*
X91730009Y-79697585D01*
X91755135Y-79700500D01*
X93844864Y-79700499D01*
X93844879Y-79700497D01*
X93844882Y-79700497D01*
X93869987Y-79697586D01*
X93869988Y-79697585D01*
X93869991Y-79697585D01*
X93972765Y-79652206D01*
X94052206Y-79572765D01*
X94097585Y-79469991D01*
X94100500Y-79444865D01*
X94100499Y-77355136D01*
X94100497Y-77355117D01*
X94097586Y-77330012D01*
X94097585Y-77330010D01*
X94097585Y-77330009D01*
X94052206Y-77227235D01*
X93972765Y-77147794D01*
X93925696Y-77127011D01*
X93869992Y-77102415D01*
X93844865Y-77099500D01*
X91755143Y-77099500D01*
X91755117Y-77099502D01*
X91730012Y-77102413D01*
X91730008Y-77102415D01*
X91627235Y-77147793D01*
X91547794Y-77227234D01*
X91502415Y-77330006D01*
X91502415Y-77330008D01*
X91499500Y-77355131D01*
X91499500Y-79444856D01*
X90300000Y-79444856D01*
X90300000Y-78650000D01*
X89233012Y-78650000D01*
X89265925Y-78592993D01*
X89300000Y-78465826D01*
X89300000Y-78334174D01*
X89265925Y-78207007D01*
X89233012Y-78150000D01*
X90300000Y-78150000D01*
X90300000Y-77352172D01*
X90299999Y-77352155D01*
X90293598Y-77292627D01*
X90293596Y-77292620D01*
X90243354Y-77157913D01*
X90243350Y-77157906D01*
X90157190Y-77042812D01*
X90157187Y-77042809D01*
X90042093Y-76956649D01*
X90042086Y-76956645D01*
X89907379Y-76906403D01*
X89907372Y-76906401D01*
X89847844Y-76900000D01*
X89050000Y-76900000D01*
X89050000Y-77966988D01*
X88992993Y-77934075D01*
X88865826Y-77900000D01*
X88734174Y-77900000D01*
X88607007Y-77934075D01*
X88550000Y-77966988D01*
X88550000Y-76900000D01*
X87752155Y-76900000D01*
X87692627Y-76906401D01*
X87692620Y-76906403D01*
X87557913Y-76956645D01*
X87557906Y-76956649D01*
X87442812Y-77042809D01*
X87442809Y-77042812D01*
X87356649Y-77157906D01*
X87356645Y-77157913D01*
X87306403Y-77292620D01*
X87306401Y-77292627D01*
X87300000Y-77352155D01*
X87300000Y-78150000D01*
X88366988Y-78150000D01*
X88334075Y-78207007D01*
X88300000Y-78334174D01*
X88300000Y-78465826D01*
X88334075Y-78592993D01*
X88366988Y-78650000D01*
X87300000Y-78650000D01*
X87300000Y-79447844D01*
X81342037Y-79447844D01*
X81193325Y-79299132D01*
X81159840Y-79237809D01*
X81164824Y-79168117D01*
X81206696Y-79112184D01*
X81245010Y-79092791D01*
X81267039Y-79086109D01*
X81282850Y-79077658D01*
X81432851Y-78997481D01*
X81432853Y-78997478D01*
X81432857Y-78997477D01*
X81578199Y-78878199D01*
X81697477Y-78732857D01*
X81697478Y-78732853D01*
X81697481Y-78732851D01*
X81788981Y-78561667D01*
X81790444Y-78562449D01*
X81829271Y-78514259D01*
X81895563Y-78492188D01*
X81963264Y-78509462D01*
X82010879Y-78560595D01*
X82013420Y-78566159D01*
X82102518Y-78732851D01*
X82102523Y-78732857D01*
X82221800Y-78878199D01*
X82367142Y-78997476D01*
X82367148Y-78997481D01*
X82517150Y-79077658D01*
X82532961Y-79086109D01*
X82650469Y-79121755D01*
X82712882Y-79140688D01*
X82712884Y-79140689D01*
X82729660Y-79142341D01*
X82900000Y-79159118D01*
X83087115Y-79140689D01*
X83267039Y-79086109D01*
X83361194Y-79035782D01*
X83432851Y-78997481D01*
X83432853Y-78997478D01*
X83432857Y-78997477D01*
X83578199Y-78878199D01*
X83697477Y-78732857D01*
X83697478Y-78732853D01*
X83697481Y-78732851D01*
X83786107Y-78567043D01*
X83786107Y-78567042D01*
X83786109Y-78567039D01*
X83805143Y-78504291D01*
X83843440Y-78445855D01*
X83907252Y-78417399D01*
X83976319Y-78427959D01*
X84028713Y-78474183D01*
X84038364Y-78492837D01*
X84113364Y-78673907D01*
X84113371Y-78673920D01*
X84222860Y-78837781D01*
X84222863Y-78837785D01*
X84362214Y-78977136D01*
X84362218Y-78977139D01*
X84526079Y-79086628D01*
X84526092Y-79086635D01*
X84701084Y-79159118D01*
X84708165Y-79162051D01*
X84708169Y-79162051D01*
X84708170Y-79162052D01*
X84901456Y-79200500D01*
X84901459Y-79200500D01*
X85098543Y-79200500D01*
X85228582Y-79174632D01*
X85291835Y-79162051D01*
X85473914Y-79086632D01*
X85637782Y-78977139D01*
X85777139Y-78837782D01*
X85886632Y-78673914D01*
X85962051Y-78491835D01*
X85987389Y-78364454D01*
X86000500Y-78298543D01*
X86000500Y-78101456D01*
X85962052Y-77908170D01*
X85962051Y-77908169D01*
X85962051Y-77908165D01*
X85934004Y-77840453D01*
X85886635Y-77726092D01*
X85886628Y-77726079D01*
X85777139Y-77562218D01*
X85777136Y-77562214D01*
X85637785Y-77422863D01*
X85637781Y-77422860D01*
X85473920Y-77313371D01*
X85473907Y-77313364D01*
X85291839Y-77237950D01*
X85291829Y-77237947D01*
X85098543Y-77199500D01*
X85098541Y-77199500D01*
X84901459Y-77199500D01*
X84901457Y-77199500D01*
X84708170Y-77237947D01*
X84708160Y-77237950D01*
X84526092Y-77313364D01*
X84526079Y-77313371D01*
X84362218Y-77422860D01*
X84362214Y-77422863D01*
X84222863Y-77562214D01*
X84222860Y-77562218D01*
X84113371Y-77726079D01*
X84113364Y-77726092D01*
X84038364Y-77907162D01*
X83994523Y-77961566D01*
X83928229Y-77983631D01*
X83860530Y-77966352D01*
X83812919Y-77915215D01*
X83805143Y-77895706D01*
X83791398Y-77850397D01*
X83786109Y-77832961D01*
X83765657Y-77794698D01*
X83697481Y-77667148D01*
X83697476Y-77667142D01*
X83578199Y-77521800D01*
X83432857Y-77402523D01*
X83432851Y-77402518D01*
X83267040Y-77313891D01*
X83087117Y-77259311D01*
X83087115Y-77259310D01*
X82900000Y-77240882D01*
X82712884Y-77259310D01*
X82712882Y-77259311D01*
X82532959Y-77313891D01*
X82367148Y-77402518D01*
X82367142Y-77402523D01*
X82221800Y-77521800D01*
X82102523Y-77667142D01*
X82102518Y-77667148D01*
X82011019Y-77838333D01*
X82009557Y-77837551D01*
X81970720Y-77885746D01*
X81904426Y-77907811D01*
X81836726Y-77890532D01*
X81789116Y-77839394D01*
X81786579Y-77833839D01*
X81697481Y-77667148D01*
X81697476Y-77667142D01*
X81578199Y-77521800D01*
X81432857Y-77402523D01*
X81432851Y-77402518D01*
X81267040Y-77313891D01*
X81087117Y-77259311D01*
X81087115Y-77259310D01*
X80900000Y-77240882D01*
X80712882Y-77259311D01*
X80640388Y-77281301D01*
X80570522Y-77281924D01*
X80516714Y-77250321D01*
X79840015Y-76573622D01*
X79840013Y-76573620D01*
X79794350Y-76547256D01*
X79748689Y-76520893D01*
X79697757Y-76507246D01*
X79646827Y-76493600D01*
X76305827Y-76493600D01*
X76200373Y-76493600D01*
X76098510Y-76520893D01*
X76007187Y-76573620D01*
X76007184Y-76573622D01*
X74679522Y-77901284D01*
X74679520Y-77901287D01*
X74626793Y-77992610D01*
X74624840Y-77999901D01*
X74621361Y-78012885D01*
X74613136Y-78043583D01*
X74599500Y-78094473D01*
X74599500Y-80669155D01*
X74579815Y-80736194D01*
X74527011Y-80781949D01*
X74457853Y-80791893D01*
X74439292Y-80786972D01*
X74439268Y-80787070D01*
X74431567Y-80785123D01*
X74398390Y-80781139D01*
X74343102Y-80774500D01*
X73830297Y-80774500D01*
X73763258Y-80754815D01*
X73717503Y-80702011D01*
X73707559Y-80632853D01*
X73731492Y-80575576D01*
X73771861Y-80522342D01*
X73827377Y-80381564D01*
X73838000Y-80293102D01*
X73838000Y-79306898D01*
X73827377Y-79218436D01*
X73771861Y-79077658D01*
X73771860Y-79077657D01*
X73771860Y-79077656D01*
X73680422Y-78957077D01*
X73559843Y-78865639D01*
X73463692Y-78827722D01*
X73419064Y-78810123D01*
X73419063Y-78810122D01*
X73419061Y-78810122D01*
X73373426Y-78804642D01*
X73330602Y-78799500D01*
X73330597Y-78799500D01*
X73212000Y-78799500D01*
X73144961Y-78779815D01*
X73099206Y-78727011D01*
X73088000Y-78675500D01*
X73088000Y-78355845D01*
X73107685Y-78288806D01*
X73137072Y-78257043D01*
X73176867Y-78226867D01*
X73263115Y-78113132D01*
X73315479Y-77980346D01*
X73325500Y-77896902D01*
X73325500Y-77303098D01*
X73324479Y-77294600D01*
X73322159Y-77275283D01*
X73315479Y-77219654D01*
X73263115Y-77086868D01*
X73263113Y-77086865D01*
X73176867Y-76973132D01*
X73063134Y-76886886D01*
X73063132Y-76886885D01*
X72930346Y-76834521D01*
X72930345Y-76834520D01*
X72930343Y-76834520D01*
X72846902Y-76824500D01*
X72328098Y-76824500D01*
X72244656Y-76834520D01*
X72244655Y-76834520D01*
X72111865Y-76886886D01*
X71998132Y-76973132D01*
X71911884Y-77086868D01*
X71908086Y-77093624D01*
X71858072Y-77142412D01*
X71789620Y-77156416D01*
X71724463Y-77131188D01*
X71691914Y-77093624D01*
X71688115Y-77086868D01*
X71601867Y-76973132D01*
X71488134Y-76886886D01*
X71488132Y-76886885D01*
X71355346Y-76834521D01*
X71355345Y-76834520D01*
X71355343Y-76834520D01*
X71271902Y-76824500D01*
X70753098Y-76824500D01*
X70669656Y-76834520D01*
X70669655Y-76834520D01*
X70536865Y-76886886D01*
X70423132Y-76973132D01*
X70336886Y-77086865D01*
X70336885Y-77086867D01*
X70323430Y-77120989D01*
X70280524Y-77176133D01*
X70214617Y-77199327D01*
X70208075Y-77199500D01*
X69604425Y-77199500D01*
X69537386Y-77179815D01*
X69491631Y-77127011D01*
X69489070Y-77120989D01*
X69475615Y-77086868D01*
X69475613Y-77086865D01*
X69389367Y-76973132D01*
X69275634Y-76886886D01*
X69275632Y-76886885D01*
X69142846Y-76834521D01*
X69142845Y-76834520D01*
X69142843Y-76834520D01*
X69059402Y-76824500D01*
X68540598Y-76824500D01*
X68457156Y-76834520D01*
X68457155Y-76834520D01*
X68324365Y-76886886D01*
X68210632Y-76973132D01*
X68124384Y-77086868D01*
X68120586Y-77093624D01*
X68070572Y-77142412D01*
X68002120Y-77156416D01*
X67936963Y-77131188D01*
X67904414Y-77093624D01*
X67900615Y-77086868D01*
X67814367Y-76973132D01*
X67700634Y-76886886D01*
X67700632Y-76886885D01*
X67567846Y-76834521D01*
X67567845Y-76834520D01*
X67567843Y-76834520D01*
X67484402Y-76824500D01*
X66965598Y-76824500D01*
X66882156Y-76834520D01*
X66882155Y-76834520D01*
X66749365Y-76886886D01*
X66635632Y-76973132D01*
X66549386Y-77086865D01*
X66497020Y-77219655D01*
X66497020Y-77219656D01*
X66487000Y-77303097D01*
X66487000Y-77896902D01*
X66497020Y-77980343D01*
X66497020Y-77980344D01*
X66497021Y-77980346D01*
X66535929Y-78079011D01*
X66549386Y-78113134D01*
X66574304Y-78145993D01*
X66599127Y-78211304D01*
X66599500Y-78220918D01*
X66599500Y-78723007D01*
X66579815Y-78790046D01*
X66550425Y-78821811D01*
X66444577Y-78902077D01*
X66353139Y-79022656D01*
X66297622Y-79163438D01*
X66293172Y-79200500D01*
X66287000Y-79251898D01*
X66287000Y-80238102D01*
X66289128Y-80255820D01*
X66297622Y-80326561D01*
X66353139Y-80467343D01*
X66444577Y-80587922D01*
X66565156Y-80679360D01*
X66565157Y-80679360D01*
X66565158Y-80679361D01*
X66705936Y-80734877D01*
X66794398Y-80745500D01*
X66794403Y-80745500D01*
X67405604Y-80745500D01*
X67423216Y-80743385D01*
X67492124Y-80754936D01*
X67543848Y-80801908D01*
X67562000Y-80866500D01*
X67562000Y-81315500D01*
X67542315Y-81382539D01*
X67489511Y-81428294D01*
X67438001Y-81439500D01*
X67196869Y-81439500D01*
X67175952Y-81442253D01*
X67146987Y-81446066D01*
X67146985Y-81446066D01*
X67146983Y-81446067D01*
X67037518Y-81497112D01*
X66952113Y-81582517D01*
X66901066Y-81691985D01*
X66901065Y-81691989D01*
X66894500Y-81741861D01*
X66894500Y-82566323D01*
X66874815Y-82633362D01*
X66858181Y-82654004D01*
X65740986Y-83771200D01*
X65599005Y-83913181D01*
X65537682Y-83946666D01*
X65511324Y-83949500D01*
X65037514Y-83949500D01*
X64970475Y-83929815D01*
X64938710Y-83900425D01*
X64867922Y-83807077D01*
X64747343Y-83715639D01*
X64642545Y-83674312D01*
X64606564Y-83660123D01*
X64606563Y-83660122D01*
X64606561Y-83660122D01*
X64560926Y-83654642D01*
X64518102Y-83649500D01*
X64518097Y-83649500D01*
X63777144Y-83649500D01*
X63715144Y-83632887D01*
X63704591Y-83626794D01*
X63704588Y-83626793D01*
X63602727Y-83599500D01*
X63602726Y-83599500D01*
X61725833Y-83599500D01*
X61658794Y-83579815D01*
X61638152Y-83563181D01*
X61622765Y-83547794D01*
X61519992Y-83502415D01*
X61494868Y-83499500D01*
X61494865Y-83499500D01*
X61473899Y-83499500D01*
X61406860Y-83479815D01*
X61361105Y-83427011D01*
X61351161Y-83357853D01*
X61370797Y-83306609D01*
X61420771Y-83231817D01*
X61420771Y-83231816D01*
X61420775Y-83231811D01*
X61473580Y-83104328D01*
X61484965Y-83047090D01*
X61500500Y-82968995D01*
X61500500Y-82331004D01*
X61473581Y-82195677D01*
X61473580Y-82195676D01*
X61473580Y-82195672D01*
X61462423Y-82168737D01*
X61420778Y-82068195D01*
X61420771Y-82068182D01*
X61344114Y-81953458D01*
X61344111Y-81953454D01*
X61246545Y-81855888D01*
X61246541Y-81855885D01*
X61131817Y-81779228D01*
X61131804Y-81779221D01*
X61004332Y-81726421D01*
X61004322Y-81726418D01*
X60868995Y-81699500D01*
X60868993Y-81699500D01*
X60731007Y-81699500D01*
X60731005Y-81699500D01*
X60595677Y-81726418D01*
X60595667Y-81726421D01*
X60468195Y-81779221D01*
X60468182Y-81779228D01*
X60353458Y-81855885D01*
X60353454Y-81855888D01*
X60255888Y-81953454D01*
X60255885Y-81953458D01*
X60179228Y-82068182D01*
X60179221Y-82068195D01*
X60126421Y-82195667D01*
X60126418Y-82195677D01*
X60099500Y-82331004D01*
X60099500Y-82331007D01*
X60099500Y-82968993D01*
X60099500Y-82968995D01*
X60099499Y-82968995D01*
X60126418Y-83104322D01*
X60126421Y-83104332D01*
X60179221Y-83231804D01*
X60179228Y-83231817D01*
X60229203Y-83306609D01*
X60250081Y-83373286D01*
X60231597Y-83440667D01*
X60179618Y-83487357D01*
X60126103Y-83499500D01*
X60055144Y-83499500D01*
X60055117Y-83499502D01*
X60030012Y-83502413D01*
X60030008Y-83502415D01*
X59927235Y-83547793D01*
X59847794Y-83627234D01*
X59802415Y-83730006D01*
X59802415Y-83730008D01*
X59799500Y-83755131D01*
X59799500Y-84244856D01*
X59799502Y-84244880D01*
X59802414Y-84269989D01*
X59802415Y-84269995D01*
X59804590Y-84274920D01*
X59813658Y-84344199D01*
X59804592Y-84375076D01*
X59802416Y-84380003D01*
X59802415Y-84380009D01*
X59799500Y-84405131D01*
X59799500Y-84894856D01*
X59799502Y-84894880D01*
X59802414Y-84919989D01*
X59802415Y-84919995D01*
X59804590Y-84924920D01*
X59813658Y-84994199D01*
X59804592Y-85025076D01*
X59802416Y-85030003D01*
X59802415Y-85030009D01*
X59799500Y-85055131D01*
X59799500Y-85544856D01*
X59799502Y-85544880D01*
X59802414Y-85569989D01*
X59802415Y-85569995D01*
X59804590Y-85574920D01*
X59813658Y-85644199D01*
X59804592Y-85675076D01*
X59802416Y-85680003D01*
X59802415Y-85680009D01*
X59799500Y-85705131D01*
X59799500Y-85938303D01*
X59779815Y-86005342D01*
X59749814Y-86037567D01*
X59742817Y-86042804D01*
X59742808Y-86042814D01*
X59656649Y-86157906D01*
X59656645Y-86157913D01*
X59606403Y-86292620D01*
X59606401Y-86292627D01*
X59600000Y-86352155D01*
X59600000Y-86400000D01*
X59896082Y-86400000D01*
X59946168Y-86410565D01*
X60030009Y-86447585D01*
X60055135Y-86450500D01*
X61494864Y-86450499D01*
X61494879Y-86450497D01*
X61494882Y-86450497D01*
X61519987Y-86447586D01*
X61519988Y-86447585D01*
X61519991Y-86447585D01*
X61594904Y-86414508D01*
X61603832Y-86410566D01*
X61653918Y-86400000D01*
X61950000Y-86400000D01*
X61950000Y-86352172D01*
X61949999Y-86352155D01*
X61943598Y-86292627D01*
X61943596Y-86292620D01*
X61893354Y-86157913D01*
X61893352Y-86157911D01*
X61807190Y-86042813D01*
X61807185Y-86042807D01*
X61800185Y-86037567D01*
X61758316Y-85981632D01*
X61750499Y-85938303D01*
X61750499Y-85705143D01*
X61750499Y-85705136D01*
X61749907Y-85700029D01*
X61747586Y-85680013D01*
X61747585Y-85680011D01*
X61747585Y-85680009D01*
X61745411Y-85675086D01*
X61736339Y-85605812D01*
X61745412Y-85574911D01*
X61747585Y-85569991D01*
X61750500Y-85544865D01*
X61750499Y-85055136D01*
X61749591Y-85047307D01*
X61747586Y-85030013D01*
X61747585Y-85030011D01*
X61747585Y-85030009D01*
X61745411Y-85025086D01*
X61736339Y-84955812D01*
X61745412Y-84924911D01*
X61747585Y-84919991D01*
X61750500Y-84894865D01*
X61750499Y-84524499D01*
X61770183Y-84457461D01*
X61822987Y-84411706D01*
X61874499Y-84400500D01*
X62850500Y-84400500D01*
X62917539Y-84420185D01*
X62963294Y-84472989D01*
X62974500Y-84524500D01*
X62974500Y-84743102D01*
X62977987Y-84772138D01*
X62985122Y-84831561D01*
X62985122Y-84831563D01*
X62985123Y-84831564D01*
X62995889Y-84858865D01*
X63040639Y-84972343D01*
X63132077Y-85092922D01*
X63259416Y-85189486D01*
X63258028Y-85191315D01*
X63298315Y-85232618D01*
X63312316Y-85301071D01*
X63287087Y-85366226D01*
X63230636Y-85407398D01*
X63227759Y-85408391D01*
X63205882Y-85415640D01*
X63205875Y-85415643D01*
X63056654Y-85507684D01*
X62932684Y-85631654D01*
X62840643Y-85780875D01*
X62840641Y-85780880D01*
X62785494Y-85947302D01*
X62785493Y-85947309D01*
X62775000Y-86050013D01*
X62775000Y-86100000D01*
X65224999Y-86100000D01*
X65224999Y-86050028D01*
X65224998Y-86050013D01*
X65214505Y-85947302D01*
X65159358Y-85780880D01*
X65159356Y-85780875D01*
X65067315Y-85631654D01*
X64943345Y-85507684D01*
X64794124Y-85415643D01*
X64794121Y-85415642D01*
X64772241Y-85408392D01*
X64714797Y-85368619D01*
X64687974Y-85304103D01*
X64700289Y-85235327D01*
X64741605Y-85190832D01*
X64740584Y-85189486D01*
X64867922Y-85092922D01*
X64938710Y-84999575D01*
X64994903Y-84958051D01*
X65037514Y-84950500D01*
X65835890Y-84950500D01*
X65835892Y-84950500D01*
X65963186Y-84916392D01*
X66077314Y-84850500D01*
X66290081Y-84637732D01*
X66351402Y-84604249D01*
X66421093Y-84609233D01*
X66465441Y-84637734D01*
X66562697Y-84734990D01*
X66596182Y-84796313D01*
X66597955Y-84806485D01*
X66603750Y-84850499D01*
X66618993Y-84966287D01*
X66619056Y-84966761D01*
X66619056Y-84966762D01*
X66666608Y-85081564D01*
X66679564Y-85112841D01*
X66775818Y-85238282D01*
X66901259Y-85334536D01*
X67047338Y-85395044D01*
X67099878Y-85401961D01*
X67204099Y-85415682D01*
X67204100Y-85415682D01*
X67308317Y-85401961D01*
X67377349Y-85412726D01*
X67429605Y-85459106D01*
X67448500Y-85524900D01*
X67448500Y-85871794D01*
X67448501Y-86066000D01*
X67428817Y-86133039D01*
X67376013Y-86178794D01*
X67324501Y-86190000D01*
X67194566Y-86190000D01*
X67107469Y-86200459D01*
X67107468Y-86200459D01*
X66968860Y-86255119D01*
X66850144Y-86345144D01*
X66760119Y-86463860D01*
X66705459Y-86602468D01*
X66705459Y-86602469D01*
X66695000Y-86689565D01*
X66695000Y-87425000D01*
X67621000Y-87425000D01*
X67688039Y-87444685D01*
X67733794Y-87497489D01*
X67745000Y-87549000D01*
X67745000Y-89160000D01*
X67795434Y-89160000D01*
X67882530Y-89149540D01*
X67882538Y-89149538D01*
X68017510Y-89096312D01*
X68087097Y-89090030D01*
X68149033Y-89122367D01*
X68183654Y-89183055D01*
X68187000Y-89211666D01*
X68187000Y-89378007D01*
X68167315Y-89445046D01*
X68137925Y-89476811D01*
X68032077Y-89557077D01*
X67940639Y-89677656D01*
X67885122Y-89818438D01*
X67879188Y-89867853D01*
X67874500Y-89906898D01*
X67874500Y-90893102D01*
X67875327Y-90899986D01*
X67885122Y-90981561D01*
X67940639Y-91122343D01*
X68032077Y-91242922D01*
X68152656Y-91334360D01*
X68152657Y-91334360D01*
X68152658Y-91334361D01*
X68293436Y-91389877D01*
X68381898Y-91400500D01*
X68381903Y-91400500D01*
X68993097Y-91400500D01*
X68993102Y-91400500D01*
X69081564Y-91389877D01*
X69222342Y-91334361D01*
X69342922Y-91242922D01*
X69381502Y-91192046D01*
X69437692Y-91150524D01*
X69507413Y-91145971D01*
X69568528Y-91179836D01*
X69585843Y-91201875D01*
X69657680Y-91318340D01*
X69657683Y-91318344D01*
X69781654Y-91442315D01*
X69930875Y-91534356D01*
X69930880Y-91534358D01*
X70097302Y-91589505D01*
X70097309Y-91589506D01*
X70200019Y-91599999D01*
X70262499Y-91599998D01*
X70262500Y-91599998D01*
X70262500Y-90650000D01*
X70762500Y-90650000D01*
X70762500Y-91599999D01*
X70824972Y-91599999D01*
X70824986Y-91599998D01*
X70927697Y-91589505D01*
X71094119Y-91534358D01*
X71094124Y-91534356D01*
X71243345Y-91442315D01*
X71367315Y-91318345D01*
X71459356Y-91169124D01*
X71459358Y-91169119D01*
X71514505Y-91002697D01*
X71514506Y-91002690D01*
X71524999Y-90899986D01*
X71525000Y-90899973D01*
X71525000Y-90650000D01*
X70762500Y-90650000D01*
X70262500Y-90650000D01*
X70262500Y-90274000D01*
X70282185Y-90206961D01*
X70334989Y-90161206D01*
X70386500Y-90150000D01*
X71524999Y-90150000D01*
X71524999Y-89900028D01*
X71524998Y-89900013D01*
X71514505Y-89797302D01*
X71459358Y-89630880D01*
X71459356Y-89630875D01*
X71367315Y-89481654D01*
X71243345Y-89357684D01*
X71094124Y-89265643D01*
X71094119Y-89265641D01*
X70927697Y-89210494D01*
X70927690Y-89210493D01*
X70824986Y-89200000D01*
X70781525Y-89200000D01*
X70714486Y-89180315D01*
X70668731Y-89127511D01*
X70658787Y-89058353D01*
X70682721Y-89001076D01*
X70720293Y-88951529D01*
X70776485Y-88910005D01*
X70846206Y-88905453D01*
X70871495Y-88914068D01*
X70956987Y-88953934D01*
X71006863Y-88960500D01*
X71603136Y-88960499D01*
X71653013Y-88953934D01*
X71762481Y-88902888D01*
X71847888Y-88817481D01*
X71898934Y-88708013D01*
X71905500Y-88658137D01*
X71905499Y-87990950D01*
X71925183Y-87923912D01*
X71977987Y-87878157D01*
X72045683Y-87868012D01*
X72108500Y-87876282D01*
X72108501Y-87876282D01*
X72171317Y-87868012D01*
X72265262Y-87855644D01*
X72411341Y-87795136D01*
X72536782Y-87698882D01*
X72633036Y-87573441D01*
X72693544Y-87427362D01*
X72697088Y-87400439D01*
X72725351Y-87336548D01*
X72783675Y-87298075D01*
X72853539Y-87297242D01*
X72912764Y-87334312D01*
X72939800Y-87384532D01*
X72951792Y-87429287D01*
X72965040Y-87452233D01*
X73004520Y-87520613D01*
X73004522Y-87520615D01*
X73527226Y-88043319D01*
X73560711Y-88104642D01*
X73555727Y-88174334D01*
X73513855Y-88230267D01*
X73448391Y-88254684D01*
X73439545Y-88255000D01*
X73189929Y-88255000D01*
X73074873Y-88270147D01*
X73074868Y-88270149D01*
X72931713Y-88329444D01*
X72808777Y-88423777D01*
X72714444Y-88546713D01*
X72655149Y-88689867D01*
X72655148Y-88689871D01*
X72640648Y-88800000D01*
X73871000Y-88800000D01*
X73938039Y-88819685D01*
X73983794Y-88872489D01*
X73995000Y-88924000D01*
X73995000Y-89176000D01*
X73975315Y-89243039D01*
X73922511Y-89288794D01*
X73871000Y-89300000D01*
X72640650Y-89300000D01*
X72655148Y-89410126D01*
X72655149Y-89410131D01*
X72714445Y-89553287D01*
X72714446Y-89553289D01*
X72813725Y-89682672D01*
X72810879Y-89684855D01*
X72836578Y-89731548D01*
X72839500Y-89758308D01*
X72839500Y-90237121D01*
X72853925Y-90328202D01*
X72853926Y-90328204D01*
X72853927Y-90328206D01*
X72872103Y-90363878D01*
X72900038Y-90418706D01*
X72912934Y-90487376D01*
X72900038Y-90531294D01*
X72853927Y-90621794D01*
X72853925Y-90621797D01*
X72839500Y-90712878D01*
X72839500Y-91187121D01*
X72853925Y-91278202D01*
X72853926Y-91278205D01*
X72909868Y-91387997D01*
X72909873Y-91388004D01*
X72996995Y-91475126D01*
X72996998Y-91475128D01*
X72997001Y-91475131D01*
X73106794Y-91531073D01*
X73106797Y-91531074D01*
X73197879Y-91545500D01*
X73197884Y-91545500D01*
X74292121Y-91545500D01*
X74383202Y-91531074D01*
X74383204Y-91531073D01*
X74383206Y-91531073D01*
X74492999Y-91475131D01*
X74580131Y-91387999D01*
X74636073Y-91278206D01*
X74639098Y-91259108D01*
X74650500Y-91187121D01*
X74650500Y-91062953D01*
X74670185Y-90995914D01*
X74686815Y-90975276D01*
X74887803Y-90774287D01*
X74887808Y-90774284D01*
X74898011Y-90764080D01*
X74898013Y-90764080D01*
X74945320Y-90716772D01*
X75006641Y-90683288D01*
X75076333Y-90688272D01*
X75120679Y-90716771D01*
X75297004Y-90893096D01*
X75313181Y-90909273D01*
X75346666Y-90970596D01*
X75349500Y-90996954D01*
X75349500Y-91187121D01*
X75363925Y-91278202D01*
X75363926Y-91278205D01*
X75419868Y-91387997D01*
X75419873Y-91388004D01*
X75506995Y-91475126D01*
X75506998Y-91475128D01*
X75507001Y-91475131D01*
X75616794Y-91531073D01*
X75616797Y-91531074D01*
X75707879Y-91545500D01*
X75707884Y-91545500D01*
X76802121Y-91545500D01*
X76893202Y-91531074D01*
X76893204Y-91531073D01*
X76893206Y-91531073D01*
X77002999Y-91475131D01*
X77090131Y-91387999D01*
X77146073Y-91278206D01*
X77149098Y-91259108D01*
X77160500Y-91187121D01*
X77160500Y-90712878D01*
X77146074Y-90621797D01*
X77146073Y-90621794D01*
X77099961Y-90531294D01*
X77087065Y-90462625D01*
X77099961Y-90418706D01*
X77113566Y-90392004D01*
X77146073Y-90328206D01*
X77151444Y-90294297D01*
X77160500Y-90237121D01*
X77160500Y-89762878D01*
X77146074Y-89671797D01*
X77146073Y-89671794D01*
X77099961Y-89581294D01*
X77087065Y-89512625D01*
X77099961Y-89468706D01*
X77103728Y-89461313D01*
X77146073Y-89378206D01*
X77147908Y-89366623D01*
X77160500Y-89287121D01*
X77160500Y-88812878D01*
X77146074Y-88721797D01*
X77146073Y-88721794D01*
X77134975Y-88700013D01*
X77090131Y-88612001D01*
X77090128Y-88611998D01*
X77090126Y-88611995D01*
X77003004Y-88524873D01*
X77003000Y-88524870D01*
X77002999Y-88524869D01*
X76967099Y-88506577D01*
X76893205Y-88468926D01*
X76893202Y-88468925D01*
X76802121Y-88454500D01*
X76802116Y-88454500D01*
X76779500Y-88454500D01*
X76712461Y-88434815D01*
X76666706Y-88382011D01*
X76655500Y-88330500D01*
X76655500Y-87603975D01*
X76655499Y-87603971D01*
X76654432Y-87599990D01*
X76629326Y-87506288D01*
X76628207Y-87502112D01*
X76575480Y-87410787D01*
X76527121Y-87362428D01*
X76493636Y-87301105D01*
X76498620Y-87231413D01*
X76501368Y-87224660D01*
X76502203Y-87222767D01*
X76502206Y-87222765D01*
X76547585Y-87119991D01*
X76550500Y-87094865D01*
X76550499Y-86441252D01*
X76570183Y-86374215D01*
X76622987Y-86328460D01*
X76692146Y-86318516D01*
X76755702Y-86347541D01*
X76762180Y-86353573D01*
X77125681Y-86717074D01*
X77159166Y-86778397D01*
X77162000Y-86804755D01*
X77162000Y-87493102D01*
X77163584Y-87506291D01*
X77172622Y-87581561D01*
X77228139Y-87722343D01*
X77319577Y-87842922D01*
X77440156Y-87934360D01*
X77440157Y-87934360D01*
X77440158Y-87934361D01*
X77580936Y-87989877D01*
X77669398Y-88000500D01*
X77669403Y-88000500D01*
X78280597Y-88000500D01*
X78280602Y-88000500D01*
X78369064Y-87989877D01*
X78509842Y-87934361D01*
X78630422Y-87842922D01*
X78669002Y-87792046D01*
X78725192Y-87750524D01*
X78794913Y-87745971D01*
X78856028Y-87779836D01*
X78873343Y-87801875D01*
X78945180Y-87918340D01*
X78945183Y-87918344D01*
X79069154Y-88042315D01*
X79218375Y-88134356D01*
X79218380Y-88134358D01*
X79384802Y-88189505D01*
X79384809Y-88189506D01*
X79487519Y-88199999D01*
X79549999Y-88199998D01*
X79550000Y-88199998D01*
X79550000Y-87250000D01*
X80050000Y-87250000D01*
X80050000Y-88199999D01*
X80112472Y-88199999D01*
X80112486Y-88199998D01*
X80215197Y-88189505D01*
X80381619Y-88134358D01*
X80381624Y-88134356D01*
X80530845Y-88042315D01*
X80654815Y-87918345D01*
X80746856Y-87769124D01*
X80746858Y-87769119D01*
X80802005Y-87602697D01*
X80802006Y-87602690D01*
X80812499Y-87499986D01*
X80812500Y-87499973D01*
X80812500Y-87250000D01*
X80050000Y-87250000D01*
X79550000Y-87250000D01*
X79550000Y-85800000D01*
X80050000Y-85800000D01*
X80050000Y-86750000D01*
X80812499Y-86750000D01*
X80812499Y-86570918D01*
X80832184Y-86503879D01*
X80849210Y-86489125D01*
X80832485Y-86478235D01*
X80803839Y-86414508D01*
X80803321Y-86410189D01*
X80802004Y-86397299D01*
X80746858Y-86230880D01*
X80746856Y-86230875D01*
X80654815Y-86081654D01*
X80530845Y-85957684D01*
X80381624Y-85865643D01*
X80381619Y-85865641D01*
X80215197Y-85810494D01*
X80215190Y-85810493D01*
X80112486Y-85800000D01*
X80050000Y-85800000D01*
X79550000Y-85800000D01*
X79549999Y-85799999D01*
X79487528Y-85800000D01*
X79487511Y-85800001D01*
X79384802Y-85810494D01*
X79218380Y-85865641D01*
X79218375Y-85865643D01*
X79069154Y-85957684D01*
X78945182Y-86081656D01*
X78873343Y-86198125D01*
X78821395Y-86244849D01*
X78752432Y-86256070D01*
X78688350Y-86228227D01*
X78669001Y-86207952D01*
X78630422Y-86157077D01*
X78509843Y-86065639D01*
X78369061Y-86010122D01*
X78323426Y-86004642D01*
X78280602Y-85999500D01*
X77669398Y-85999500D01*
X77614512Y-86006090D01*
X77545605Y-85994539D01*
X77512049Y-85970656D01*
X76965274Y-85423881D01*
X76931789Y-85362558D01*
X76936773Y-85292866D01*
X76978645Y-85236933D01*
X77044109Y-85212516D01*
X77052955Y-85212200D01*
X79215625Y-85212200D01*
X79215627Y-85212200D01*
X79317488Y-85184907D01*
X79408813Y-85132180D01*
X81746880Y-82794113D01*
X81775832Y-82743967D01*
X81799607Y-82702787D01*
X81826900Y-82600927D01*
X81826900Y-81364855D01*
X81846585Y-81297816D01*
X81899389Y-81252061D01*
X81968547Y-81242117D01*
X82032103Y-81271142D01*
X82038581Y-81277174D01*
X82827688Y-82066281D01*
X82861173Y-82127604D01*
X82863124Y-82168737D01*
X82862001Y-82178097D01*
X82862000Y-82178102D01*
X82862000Y-83021902D01*
X82872020Y-83105343D01*
X82872020Y-83105344D01*
X82886206Y-83141316D01*
X82921892Y-83231811D01*
X82924386Y-83238134D01*
X83010632Y-83351867D01*
X83109725Y-83427011D01*
X83124368Y-83438115D01*
X83257154Y-83490479D01*
X83340598Y-83500500D01*
X83859402Y-83500500D01*
X83950740Y-83489531D01*
X83950922Y-83491053D01*
X84011746Y-83493367D01*
X84069046Y-83533348D01*
X84095634Y-83597961D01*
X84083069Y-83666692D01*
X84059995Y-83698611D01*
X83105630Y-84652975D01*
X83044307Y-84686460D01*
X82974615Y-84681476D01*
X82961656Y-84675780D01*
X82948204Y-84668926D01*
X82857121Y-84654500D01*
X82857116Y-84654500D01*
X81602884Y-84654500D01*
X81602879Y-84654500D01*
X81511797Y-84668925D01*
X81511794Y-84668926D01*
X81402002Y-84724868D01*
X81401995Y-84724873D01*
X81314873Y-84811995D01*
X81314868Y-84812002D01*
X81258926Y-84921794D01*
X81258925Y-84921797D01*
X81244500Y-85012878D01*
X81244500Y-85491691D01*
X81224815Y-85558730D01*
X81218219Y-85566942D01*
X81218725Y-85567330D01*
X81119444Y-85696713D01*
X81060149Y-85839867D01*
X81060148Y-85839871D01*
X81045648Y-85950000D01*
X82356000Y-85950000D01*
X82423039Y-85969685D01*
X82468794Y-86022489D01*
X82480000Y-86074000D01*
X82480000Y-86326000D01*
X82460315Y-86393039D01*
X82407511Y-86438794D01*
X82356000Y-86450000D01*
X81045650Y-86450000D01*
X81019907Y-86479353D01*
X81019321Y-86479724D01*
X81055476Y-86535983D01*
X81059438Y-86554734D01*
X81060147Y-86560125D01*
X81060149Y-86560131D01*
X81119445Y-86703287D01*
X81119446Y-86703289D01*
X81218725Y-86832672D01*
X81215879Y-86834855D01*
X81241578Y-86881548D01*
X81244500Y-86908308D01*
X81244500Y-87387121D01*
X81258925Y-87478202D01*
X81258926Y-87478205D01*
X81314868Y-87587997D01*
X81314873Y-87588004D01*
X81401995Y-87675126D01*
X81401998Y-87675128D01*
X81402001Y-87675131D01*
X81494660Y-87722343D01*
X81511794Y-87731073D01*
X81511797Y-87731074D01*
X81602879Y-87745500D01*
X81602884Y-87745500D01*
X82207745Y-87745500D01*
X82274784Y-87765185D01*
X82295426Y-87781819D01*
X82845587Y-88331980D01*
X82936912Y-88384707D01*
X83038773Y-88412000D01*
X83144227Y-88412000D01*
X87175178Y-88412000D01*
X87242217Y-88431685D01*
X87287972Y-88484489D01*
X87297916Y-88553647D01*
X87292884Y-88575004D01*
X87285494Y-88597302D01*
X87285493Y-88597309D01*
X87275000Y-88700013D01*
X87275000Y-88950000D01*
X88413500Y-88950000D01*
X88480539Y-88969685D01*
X88526294Y-89022489D01*
X88537500Y-89074000D01*
X88537500Y-89326000D01*
X88517815Y-89393039D01*
X88465011Y-89438794D01*
X88413500Y-89450000D01*
X87275001Y-89450000D01*
X87275001Y-89699986D01*
X87285494Y-89802697D01*
X87340641Y-89969119D01*
X87340643Y-89969124D01*
X87432684Y-90118345D01*
X87556654Y-90242315D01*
X87603310Y-90271093D01*
X87650034Y-90323041D01*
X87661257Y-90392004D01*
X87633413Y-90456086D01*
X87575344Y-90494942D01*
X87552499Y-90499806D01*
X87530011Y-90502414D01*
X87530008Y-90502415D01*
X87427235Y-90547793D01*
X87347794Y-90627234D01*
X87302415Y-90730006D01*
X87302415Y-90730008D01*
X87299500Y-90755131D01*
X87299500Y-92844856D01*
X87299502Y-92844882D01*
X87302413Y-92869987D01*
X87302415Y-92869991D01*
X87347793Y-92972764D01*
X87347794Y-92972765D01*
X87427235Y-93052206D01*
X87449564Y-93062065D01*
X87449566Y-93062066D01*
X87502942Y-93107152D01*
X87523469Y-93173939D01*
X87504630Y-93241221D01*
X87452407Y-93287637D01*
X87399479Y-93299500D01*
X56824500Y-93299500D01*
X56757461Y-93279815D01*
X56711706Y-93227011D01*
X56700500Y-93175500D01*
X56700500Y-88745005D01*
X57014500Y-88745005D01*
X57014728Y-88756900D01*
X57015729Y-88782950D01*
X57016413Y-88794799D01*
X57018417Y-88820843D01*
X57019545Y-88832577D01*
X57019547Y-88832591D01*
X57022547Y-88858591D01*
X57024850Y-88873581D01*
X57026088Y-88881643D01*
X57031085Y-88907628D01*
X57034075Y-88921468D01*
X57040074Y-88946466D01*
X57042177Y-88954728D01*
X57049179Y-88980733D01*
X57049181Y-88980742D01*
X57058266Y-89009013D01*
X57058281Y-89009055D01*
X57067273Y-89033031D01*
X57071387Y-89043429D01*
X57081368Y-89067385D01*
X57081385Y-89067423D01*
X57085735Y-89077371D01*
X57094416Y-89096312D01*
X57096741Y-89101384D01*
X57107282Y-89122028D01*
X57108690Y-89124784D01*
X57113720Y-89133684D01*
X57121692Y-89147789D01*
X57130038Y-89161693D01*
X57143829Y-89183364D01*
X57158043Y-89205700D01*
X57173018Y-89227176D01*
X57179608Y-89235825D01*
X57189014Y-89248172D01*
X57199414Y-89261090D01*
X57216421Y-89281099D01*
X57227596Y-89293551D01*
X57245592Y-89312546D01*
X57257453Y-89324407D01*
X57276448Y-89342403D01*
X57288900Y-89353578D01*
X57288905Y-89353582D01*
X57304247Y-89366623D01*
X57308909Y-89370585D01*
X57321827Y-89380985D01*
X57331086Y-89388039D01*
X57342824Y-89396982D01*
X57364300Y-89411957D01*
X57375253Y-89418927D01*
X57408306Y-89439961D01*
X57422210Y-89448307D01*
X57425206Y-89450000D01*
X57445216Y-89461310D01*
X57468629Y-89473265D01*
X57492629Y-89484265D01*
X57502577Y-89488615D01*
X57502614Y-89488631D01*
X57523575Y-89497364D01*
X57526577Y-89498615D01*
X57536976Y-89502730D01*
X57560976Y-89511730D01*
X57567258Y-89513748D01*
X57589257Y-89520818D01*
X57589264Y-89520819D01*
X57589278Y-89520824D01*
X57615278Y-89527824D01*
X57618949Y-89528758D01*
X57623533Y-89529925D01*
X57633147Y-89532232D01*
X57648538Y-89535926D01*
X57662363Y-89538913D01*
X57688363Y-89543913D01*
X57711409Y-89547453D01*
X57737409Y-89550453D01*
X57749186Y-89551585D01*
X57775186Y-89553585D01*
X57775190Y-89553585D01*
X57775200Y-89553586D01*
X57787049Y-89554270D01*
X57787051Y-89554270D01*
X57787067Y-89554271D01*
X57813067Y-89555271D01*
X57823387Y-89555469D01*
X57824995Y-89555500D01*
X57825000Y-89555500D01*
X58375005Y-89555500D01*
X58376570Y-89555469D01*
X58386933Y-89555271D01*
X58412933Y-89554271D01*
X58414383Y-89554187D01*
X58424799Y-89553586D01*
X58424805Y-89553585D01*
X58424814Y-89553585D01*
X58450814Y-89551585D01*
X58462591Y-89550453D01*
X58488591Y-89547453D01*
X58511637Y-89543913D01*
X58537637Y-89538913D01*
X58551462Y-89535926D01*
X58576462Y-89529926D01*
X58584722Y-89527824D01*
X58610722Y-89520824D01*
X58610737Y-89520818D01*
X58610742Y-89520818D01*
X58623287Y-89516786D01*
X58639024Y-89511730D01*
X58663024Y-89502730D01*
X58673423Y-89498615D01*
X58697423Y-89488615D01*
X58707371Y-89484265D01*
X58731371Y-89473265D01*
X58754784Y-89461310D01*
X58777784Y-89448310D01*
X58791700Y-89439957D01*
X58835700Y-89411957D01*
X58857176Y-89396982D01*
X58878176Y-89380982D01*
X58891095Y-89370582D01*
X58911095Y-89353582D01*
X58923545Y-89342408D01*
X58923551Y-89342403D01*
X58942546Y-89324407D01*
X58954407Y-89312546D01*
X58972403Y-89293551D01*
X58983578Y-89281099D01*
X58983582Y-89281095D01*
X59000582Y-89261095D01*
X59010982Y-89248176D01*
X59026982Y-89227176D01*
X59041957Y-89205700D01*
X59069957Y-89161700D01*
X59078310Y-89147784D01*
X59091310Y-89124784D01*
X59103265Y-89101371D01*
X59114265Y-89077371D01*
X59118615Y-89067423D01*
X59128615Y-89043423D01*
X59132730Y-89033024D01*
X59141730Y-89009024D01*
X59150824Y-88980722D01*
X59157824Y-88954722D01*
X59159926Y-88946462D01*
X59165926Y-88921462D01*
X59168913Y-88907637D01*
X59173913Y-88881637D01*
X59177453Y-88858591D01*
X59180453Y-88832591D01*
X59181585Y-88820814D01*
X59183585Y-88794814D01*
X59184271Y-88782933D01*
X59185271Y-88756933D01*
X59185500Y-88745000D01*
X59185500Y-87600000D01*
X59184175Y-87571351D01*
X59152948Y-87461598D01*
X59152947Y-87461597D01*
X59152947Y-87461596D01*
X59114577Y-87410787D01*
X59104139Y-87396965D01*
X59079447Y-87331606D01*
X59094012Y-87263271D01*
X59115411Y-87234559D01*
X59127206Y-87222765D01*
X59172585Y-87119991D01*
X59175500Y-87094865D01*
X59175500Y-86800000D01*
X59600000Y-86800000D01*
X59600000Y-86847844D01*
X59606401Y-86907372D01*
X59606403Y-86907379D01*
X59656645Y-87042086D01*
X59656649Y-87042093D01*
X59742809Y-87157187D01*
X59742812Y-87157190D01*
X59857906Y-87243350D01*
X59857913Y-87243354D01*
X59992620Y-87293596D01*
X59992619Y-87293596D01*
X60036153Y-87298277D01*
X60100704Y-87325015D01*
X60140552Y-87382408D01*
X60143046Y-87452233D01*
X60137460Y-87469017D01*
X60126421Y-87495667D01*
X60126418Y-87495677D01*
X60099500Y-87631004D01*
X60099500Y-87631007D01*
X60099500Y-88268993D01*
X60099500Y-88268995D01*
X60099499Y-88268995D01*
X60126418Y-88404322D01*
X60126421Y-88404332D01*
X60179221Y-88531804D01*
X60179228Y-88531817D01*
X60255885Y-88646541D01*
X60255888Y-88646545D01*
X60353454Y-88744111D01*
X60353458Y-88744114D01*
X60468182Y-88820771D01*
X60468195Y-88820778D01*
X60559485Y-88858591D01*
X60595672Y-88873580D01*
X60595676Y-88873580D01*
X60595677Y-88873581D01*
X60731004Y-88900500D01*
X60731007Y-88900500D01*
X60868995Y-88900500D01*
X60963823Y-88881637D01*
X61004328Y-88873580D01*
X61131811Y-88820775D01*
X61246542Y-88744114D01*
X61344114Y-88646542D01*
X61420775Y-88531811D01*
X61423651Y-88524869D01*
X61459840Y-88437499D01*
X61473580Y-88404328D01*
X61487972Y-88331977D01*
X61500500Y-88268995D01*
X61500500Y-87925000D01*
X66695000Y-87925000D01*
X66695000Y-88660434D01*
X66705459Y-88747530D01*
X66705459Y-88747531D01*
X66760119Y-88886139D01*
X66850144Y-89004855D01*
X66968860Y-89094880D01*
X67107468Y-89149540D01*
X67194566Y-89160000D01*
X67245000Y-89160000D01*
X67245000Y-87925000D01*
X66695000Y-87925000D01*
X61500500Y-87925000D01*
X61500500Y-87631004D01*
X61473581Y-87495677D01*
X61473580Y-87495676D01*
X61473580Y-87495672D01*
X61460407Y-87463871D01*
X61452939Y-87394404D01*
X61484214Y-87331925D01*
X61544302Y-87296272D01*
X61551707Y-87294936D01*
X61557379Y-87293596D01*
X61692086Y-87243354D01*
X61692093Y-87243350D01*
X61807187Y-87157190D01*
X61807190Y-87157187D01*
X61893350Y-87042093D01*
X61893354Y-87042086D01*
X61943596Y-86907379D01*
X61943598Y-86907372D01*
X61949999Y-86847844D01*
X61950000Y-86847827D01*
X61950000Y-86800000D01*
X59600000Y-86800000D01*
X59175500Y-86800000D01*
X59175500Y-86600000D01*
X62775001Y-86600000D01*
X62775001Y-86649986D01*
X62785494Y-86752697D01*
X62840641Y-86919119D01*
X62840643Y-86919124D01*
X62932684Y-87068345D01*
X63056654Y-87192315D01*
X63205875Y-87284356D01*
X63205880Y-87284358D01*
X63372302Y-87339505D01*
X63372309Y-87339506D01*
X63475019Y-87349999D01*
X63749999Y-87349999D01*
X63750000Y-87349998D01*
X63750000Y-86600000D01*
X64250000Y-86600000D01*
X64250000Y-87349999D01*
X64524972Y-87349999D01*
X64524986Y-87349998D01*
X64627697Y-87339505D01*
X64794119Y-87284358D01*
X64794124Y-87284356D01*
X64943345Y-87192315D01*
X65067315Y-87068345D01*
X65159356Y-86919124D01*
X65159358Y-86919119D01*
X65214505Y-86752697D01*
X65214506Y-86752690D01*
X65224999Y-86649986D01*
X65225000Y-86649973D01*
X65225000Y-86600000D01*
X64250000Y-86600000D01*
X63750000Y-86600000D01*
X62775001Y-86600000D01*
X59175500Y-86600000D01*
X59175499Y-85505136D01*
X59175497Y-85505117D01*
X59172586Y-85480012D01*
X59172585Y-85480010D01*
X59172585Y-85480009D01*
X59127206Y-85377235D01*
X59127199Y-85377228D01*
X59122303Y-85370080D01*
X59100655Y-85303649D01*
X59118358Y-85236059D01*
X59122303Y-85229920D01*
X59127198Y-85222772D01*
X59127206Y-85222765D01*
X59172585Y-85119991D01*
X59175500Y-85094865D01*
X59175499Y-83505136D01*
X59175497Y-83505117D01*
X59172586Y-83480012D01*
X59172585Y-83480010D01*
X59172585Y-83480009D01*
X59127206Y-83377235D01*
X59118347Y-83368376D01*
X59084862Y-83307053D01*
X59089846Y-83237361D01*
X59100601Y-83215417D01*
X59104462Y-83209182D01*
X59164533Y-83112166D01*
X59185500Y-83000000D01*
X59185500Y-81855000D01*
X59185271Y-81843067D01*
X59184271Y-81817067D01*
X59183585Y-81805186D01*
X59181585Y-81779186D01*
X59180453Y-81767409D01*
X59177453Y-81741409D01*
X59173913Y-81718363D01*
X59168913Y-81692363D01*
X59165926Y-81678538D01*
X59159926Y-81653538D01*
X59157824Y-81645278D01*
X59150824Y-81619278D01*
X59150819Y-81619264D01*
X59150818Y-81619257D01*
X59141733Y-81590986D01*
X59141730Y-81590976D01*
X59132730Y-81566976D01*
X59128615Y-81556577D01*
X59124747Y-81547294D01*
X59118631Y-81532614D01*
X59118615Y-81532577D01*
X59114265Y-81522629D01*
X59103265Y-81498629D01*
X59102491Y-81497114D01*
X59100802Y-81493806D01*
X59091310Y-81475216D01*
X59078310Y-81452216D01*
X59078307Y-81452210D01*
X59069961Y-81438306D01*
X59041956Y-81394299D01*
X59026982Y-81372824D01*
X59018039Y-81361086D01*
X59010985Y-81351827D01*
X59000585Y-81338909D01*
X58983578Y-81318900D01*
X58972403Y-81306448D01*
X58954407Y-81287453D01*
X58942546Y-81275592D01*
X58923551Y-81257596D01*
X58911099Y-81246421D01*
X58891090Y-81229414D01*
X58878172Y-81219014D01*
X58865825Y-81209608D01*
X58857176Y-81203018D01*
X58835700Y-81188043D01*
X58791693Y-81160038D01*
X58777789Y-81151692D01*
X58763684Y-81143720D01*
X58754784Y-81138690D01*
X58752028Y-81137282D01*
X58731384Y-81126741D01*
X58731371Y-81126735D01*
X58707371Y-81115735D01*
X58702444Y-81113580D01*
X58697385Y-81111368D01*
X58673429Y-81101387D01*
X58666988Y-81098838D01*
X58663024Y-81097270D01*
X58654040Y-81093901D01*
X58639055Y-81088281D01*
X58639013Y-81088266D01*
X58610742Y-81079181D01*
X58610733Y-81079179D01*
X58584728Y-81072177D01*
X58576466Y-81070074D01*
X58551468Y-81064075D01*
X58537628Y-81061085D01*
X58511643Y-81056088D01*
X58511639Y-81056087D01*
X58511637Y-81056087D01*
X58488591Y-81052547D01*
X58488585Y-81052546D01*
X58488583Y-81052546D01*
X58462577Y-81049545D01*
X58450843Y-81048417D01*
X58424799Y-81046413D01*
X58412950Y-81045729D01*
X58394497Y-81045019D01*
X58386933Y-81044729D01*
X58386919Y-81044728D01*
X58386900Y-81044728D01*
X58375005Y-81044500D01*
X58375000Y-81044500D01*
X57825000Y-81044500D01*
X57824995Y-81044500D01*
X57813099Y-81044728D01*
X57813078Y-81044728D01*
X57813067Y-81044729D01*
X57806586Y-81044978D01*
X57787049Y-81045729D01*
X57775200Y-81046413D01*
X57749156Y-81048417D01*
X57737422Y-81049545D01*
X57711416Y-81052546D01*
X57711410Y-81052546D01*
X57711409Y-81052547D01*
X57699886Y-81054317D01*
X57688356Y-81056088D01*
X57662371Y-81061085D01*
X57648531Y-81064075D01*
X57623533Y-81070074D01*
X57615271Y-81072177D01*
X57589266Y-81079179D01*
X57589257Y-81079181D01*
X57560986Y-81088266D01*
X57560944Y-81088281D01*
X57536968Y-81097273D01*
X57526570Y-81101387D01*
X57502614Y-81111368D01*
X57492638Y-81115731D01*
X57468615Y-81126741D01*
X57445223Y-81138686D01*
X57422210Y-81151692D01*
X57408306Y-81160038D01*
X57364299Y-81188043D01*
X57350911Y-81197378D01*
X57342824Y-81203018D01*
X57342817Y-81203022D01*
X57342816Y-81203024D01*
X57321827Y-81219014D01*
X57308909Y-81229414D01*
X57288900Y-81246421D01*
X57276448Y-81257596D01*
X57257453Y-81275592D01*
X57245592Y-81287453D01*
X57227596Y-81306448D01*
X57216421Y-81318900D01*
X57199414Y-81338909D01*
X57189014Y-81351827D01*
X57173024Y-81372816D01*
X57158043Y-81394299D01*
X57130038Y-81438306D01*
X57121692Y-81452210D01*
X57108686Y-81475223D01*
X57096741Y-81498615D01*
X57085731Y-81522638D01*
X57081368Y-81532614D01*
X57071387Y-81556570D01*
X57067273Y-81566968D01*
X57058281Y-81590944D01*
X57058266Y-81590986D01*
X57049181Y-81619257D01*
X57049179Y-81619266D01*
X57042177Y-81645271D01*
X57040074Y-81653533D01*
X57034075Y-81678531D01*
X57031085Y-81692371D01*
X57026088Y-81718356D01*
X57022546Y-81741416D01*
X57019545Y-81767422D01*
X57018417Y-81779156D01*
X57016413Y-81805200D01*
X57015729Y-81817049D01*
X57014728Y-81843099D01*
X57014500Y-81854994D01*
X57014500Y-83000020D01*
X57015824Y-83028641D01*
X57015825Y-83028648D01*
X57047052Y-83138402D01*
X57095860Y-83203033D01*
X57120552Y-83268394D01*
X57105987Y-83336728D01*
X57084589Y-83365439D01*
X57072794Y-83377234D01*
X57027415Y-83480006D01*
X57027415Y-83480008D01*
X57024500Y-83505131D01*
X57024500Y-85094856D01*
X57024502Y-85094882D01*
X57027413Y-85119987D01*
X57027415Y-85119991D01*
X57072791Y-85222760D01*
X57077699Y-85229924D01*
X57099344Y-85296356D01*
X57081638Y-85363945D01*
X57077699Y-85370076D01*
X57072792Y-85377238D01*
X57027415Y-85480006D01*
X57027415Y-85480008D01*
X57024500Y-85505131D01*
X57024500Y-87094856D01*
X57024502Y-87094882D01*
X57027413Y-87119987D01*
X57027415Y-87119991D01*
X57072793Y-87222764D01*
X57081652Y-87231623D01*
X57115137Y-87292946D01*
X57110153Y-87362638D01*
X57099398Y-87384581D01*
X57035468Y-87487831D01*
X57035467Y-87487833D01*
X57035467Y-87487834D01*
X57014947Y-87597613D01*
X57014500Y-87600002D01*
X57014500Y-88745005D01*
X56700500Y-88745005D01*
X56700500Y-76024500D01*
X56720185Y-75957461D01*
X56772989Y-75911706D01*
X56824500Y-75900500D01*
X94975500Y-75900500D01*
X95042539Y-75920185D01*
G37*
%TD.AperFunction*%
%TA.AperFunction,Conductor*%
G36*
X89399148Y-89971772D02*
G01*
X89418498Y-89992047D01*
X89457077Y-90042922D01*
X89577656Y-90134360D01*
X89577657Y-90134360D01*
X89577658Y-90134361D01*
X89718436Y-90189877D01*
X89806898Y-90200500D01*
X89806903Y-90200500D01*
X90418097Y-90200500D01*
X90418102Y-90200500D01*
X90506564Y-90189877D01*
X90595340Y-90154867D01*
X90642010Y-90136464D01*
X90711596Y-90130182D01*
X90773533Y-90162519D01*
X90808154Y-90223207D01*
X90811500Y-90251818D01*
X90811500Y-90272444D01*
X90791815Y-90339483D01*
X90775181Y-90360125D01*
X90112180Y-91023126D01*
X90050857Y-91056611D01*
X89981165Y-91051627D01*
X89925232Y-91009755D01*
X89900815Y-90944291D01*
X89900499Y-90935445D01*
X89900499Y-90755143D01*
X89900499Y-90755136D01*
X89900497Y-90755117D01*
X89897586Y-90730012D01*
X89897585Y-90730010D01*
X89897585Y-90730009D01*
X89852206Y-90627235D01*
X89772765Y-90547794D01*
X89735396Y-90531294D01*
X89669992Y-90502415D01*
X89644868Y-90499500D01*
X89038621Y-90499500D01*
X88971582Y-90479815D01*
X88925827Y-90427011D01*
X88915883Y-90357853D01*
X88944908Y-90294297D01*
X88973525Y-90269961D01*
X89018343Y-90242317D01*
X89142315Y-90118345D01*
X89214155Y-90001875D01*
X89266103Y-89955151D01*
X89335066Y-89943928D01*
X89399148Y-89971772D01*
G37*
%TD.AperFunction*%
%TA.AperFunction,Conductor*%
G36*
X86768834Y-82225073D02*
G01*
X86824767Y-82266945D01*
X86849184Y-82332409D01*
X86849500Y-82341255D01*
X86849500Y-82493102D01*
X86853282Y-82524597D01*
X86860122Y-82581561D01*
X86860122Y-82581563D01*
X86860123Y-82581564D01*
X86867759Y-82600927D01*
X86915639Y-82722343D01*
X87007077Y-82842922D01*
X87127656Y-82934360D01*
X87127657Y-82934360D01*
X87127658Y-82934361D01*
X87268436Y-82989877D01*
X87356898Y-83000500D01*
X87356903Y-83000500D01*
X89430800Y-83000500D01*
X89497839Y-83020185D01*
X89543594Y-83072989D01*
X89554800Y-83124500D01*
X89554800Y-83211145D01*
X89535115Y-83278184D01*
X89518481Y-83298826D01*
X88453822Y-84363484D01*
X88453820Y-84363487D01*
X88401093Y-84454812D01*
X88387067Y-84507159D01*
X88387067Y-84507160D01*
X88387066Y-84507159D01*
X88373800Y-84556671D01*
X88373800Y-84995944D01*
X88354115Y-85062983D01*
X88337481Y-85083625D01*
X88236680Y-85184426D01*
X88175357Y-85217911D01*
X88105665Y-85212927D01*
X88049732Y-85171055D01*
X88025315Y-85105591D01*
X88024999Y-85096745D01*
X88024999Y-84987528D01*
X88024998Y-84987513D01*
X88014505Y-84884802D01*
X87959358Y-84718380D01*
X87959356Y-84718375D01*
X87867315Y-84569154D01*
X87743345Y-84445184D01*
X87594124Y-84353143D01*
X87594119Y-84353141D01*
X87427697Y-84297994D01*
X87427690Y-84297993D01*
X87324986Y-84287500D01*
X87050000Y-84287500D01*
X87050000Y-85413500D01*
X87030315Y-85480539D01*
X86977511Y-85526294D01*
X86926000Y-85537500D01*
X86674000Y-85537500D01*
X86606961Y-85517815D01*
X86561206Y-85465011D01*
X86550000Y-85413500D01*
X86550000Y-84287500D01*
X86275029Y-84287500D01*
X86275012Y-84287501D01*
X86172302Y-84297994D01*
X86005880Y-84353141D01*
X86005875Y-84353143D01*
X85856654Y-84445184D01*
X85732684Y-84569154D01*
X85640643Y-84718375D01*
X85637592Y-84724921D01*
X85635467Y-84723930D01*
X85602073Y-84772138D01*
X85537550Y-84798945D01*
X85468777Y-84786613D01*
X85436482Y-84763351D01*
X85398004Y-84724873D01*
X85398000Y-84724870D01*
X85397999Y-84724869D01*
X85381925Y-84716679D01*
X85288205Y-84668926D01*
X85288202Y-84668925D01*
X85197121Y-84654500D01*
X85197116Y-84654500D01*
X84536255Y-84654500D01*
X84469216Y-84634815D01*
X84423461Y-84582011D01*
X84413517Y-84512853D01*
X84442542Y-84449297D01*
X84448574Y-84442819D01*
X84666845Y-84224548D01*
X85356282Y-83535109D01*
X85417603Y-83501626D01*
X85458746Y-83499677D01*
X85465598Y-83500500D01*
X85465601Y-83500500D01*
X85984402Y-83500500D01*
X86067846Y-83490479D01*
X86200632Y-83438115D01*
X86314367Y-83351867D01*
X86400615Y-83238132D01*
X86452979Y-83105346D01*
X86463000Y-83021902D01*
X86463000Y-82479755D01*
X86482685Y-82412716D01*
X86499319Y-82392074D01*
X86637819Y-82253574D01*
X86699142Y-82220089D01*
X86768834Y-82225073D01*
G37*
%TD.AperFunction*%
%TD*%
M02*
