M48
; DRILL file {KiCad 8.0.1} date 2024-04-19T14:49:21+0530
; FORMAT={-:-/ absolute / inch / decimal}
; #@! TF.CreationDate,2024-04-19T14:49:21+05:30
; #@! TF.GenerationSoftware,Kicad,Pcbnew,8.0.1
; #@! TF.FileFunction,Plated,1,2,PTH
FMAT,2
INCH
; #@! TA.AperFunction,Plated,PTH,ViaDrill
T1C0.0118
; #@! TA.AperFunction,Plated,PTH,ComponentDrill
T2C0.0217
; #@! TA.AperFunction,Plated,PTH,ComponentDrill
T3C0.0236
; #@! TA.AperFunction,Plated,PTH,ComponentDrill
T4C0.0315
; #@! TA.AperFunction,Plated,PTH,ComponentDrill
T5C0.0394
%
G90
G05
T1
X2.6458Y-3.339
X2.7784Y-3.5084
X2.8389Y-3.4359
X2.8661Y-3.2441
X2.874Y-3.3071
X3.1862Y-3.4252
X3.4608Y-3.3307
X3.5065Y-3.5518
X3.7103Y-3.4353
T4
X3.1063Y-3.0787
X3.185Y-3.0787
X3.2638Y-3.0787
T5
X3.4882Y-3.6142
X3.4961Y-3.0866
X3.6457Y-3.6142
X3.6535Y-3.0866
T2
G00X2.3002Y-3.2195
M15
G01X2.2746Y-3.2195
M16
G05
G00X2.3002Y-3.497
M15
G01X2.2746Y-3.497
M16
G05
T3
G00X2.3937Y-3.2539
M15
G01X2.3937Y-3.2657
M16
G05
G00X2.3937Y-3.4508
M15
G01X2.3937Y-3.4626
M16
G05
M30
