%TF.GenerationSoftware,KiCad,Pcbnew,8.0.1*%
%TF.CreationDate,2024-04-19T14:44:52+05:30*%
%TF.ProjectId,Li-po_charger_with_BOOST,4c692d70-6f5f-4636-9861-726765725f77,rev?*%
%TF.SameCoordinates,Original*%
%TF.FileFunction,Soldermask,Top*%
%TF.FilePolarity,Negative*%
%FSLAX46Y46*%
G04 Gerber Fmt 4.6, Leading zero omitted, Abs format (unit mm)*
G04 Created by KiCad (PCBNEW 8.0.1) date 2024-04-19 14:44:52*
%MOMM*%
%LPD*%
G01*
G04 APERTURE LIST*
G04 Aperture macros list*
%AMRoundRect*
0 Rectangle with rounded corners*
0 $1 Rounding radius*
0 $2 $3 $4 $5 $6 $7 $8 $9 X,Y pos of 4 corners*
0 Add a 4 corners polygon primitive as box body*
4,1,4,$2,$3,$4,$5,$6,$7,$8,$9,$2,$3,0*
0 Add four circle primitives for the rounded corners*
1,1,$1+$1,$2,$3*
1,1,$1+$1,$4,$5*
1,1,$1+$1,$6,$7*
1,1,$1+$1,$8,$9*
0 Add four rect primitives between the rounded corners*
20,1,$1+$1,$2,$3,$4,$5,0*
20,1,$1+$1,$4,$5,$6,$7,0*
20,1,$1+$1,$6,$7,$8,$9,0*
20,1,$1+$1,$8,$9,$2,$3,0*%
G04 Aperture macros list end*
%ADD10C,0.010000*%
%ADD11RoundRect,0.102000X-0.675000X0.200000X-0.675000X-0.200000X0.675000X-0.200000X0.675000X0.200000X0*%
%ADD12O,1.004000X1.504000*%
%ADD13O,1.704000X0.954000*%
%ADD14RoundRect,0.102000X-0.775000X0.750000X-0.775000X-0.750000X0.775000X-0.750000X0.775000X0.750000X0*%
%ADD15RoundRect,0.250000X0.450000X-0.262500X0.450000X0.262500X-0.450000X0.262500X-0.450000X-0.262500X0*%
%ADD16C,1.500000*%
%ADD17RoundRect,0.102000X-0.654000X-0.654000X0.654000X-0.654000X0.654000X0.654000X-0.654000X0.654000X0*%
%ADD18C,1.512000*%
%ADD19R,2.000000X2.000000*%
%ADD20RoundRect,0.250000X-0.262500X-0.450000X0.262500X-0.450000X0.262500X0.450000X-0.262500X0.450000X0*%
%ADD21RoundRect,0.119100X-0.667900X-0.277900X0.667900X-0.277900X0.667900X0.277900X-0.667900X0.277900X0*%
%ADD22RoundRect,0.119100X0.667900X0.277900X-0.667900X0.277900X-0.667900X-0.277900X0.667900X-0.277900X0*%
%ADD23RoundRect,0.250000X1.000000X0.650000X-1.000000X0.650000X-1.000000X-0.650000X1.000000X-0.650000X0*%
%ADD24RoundRect,0.250000X-0.475000X0.250000X-0.475000X-0.250000X0.475000X-0.250000X0.475000X0.250000X0*%
%ADD25RoundRect,0.250000X0.475000X-0.250000X0.475000X0.250000X-0.475000X0.250000X-0.475000X-0.250000X0*%
%ADD26RoundRect,0.119100X-0.587900X-0.277900X0.587900X-0.277900X0.587900X0.277900X-0.587900X0.277900X0*%
%ADD27RoundRect,0.250000X0.262500X0.450000X-0.262500X0.450000X-0.262500X-0.450000X0.262500X-0.450000X0*%
%ADD28RoundRect,0.102000X0.300000X-0.550000X0.300000X0.550000X-0.300000X0.550000X-0.300000X-0.550000X0*%
%ADD29RoundRect,0.056280X0.345720X-1.030720X0.345720X1.030720X-0.345720X1.030720X-0.345720X-1.030720X0*%
%ADD30RoundRect,0.102000X1.651000X-1.206500X1.651000X1.206500X-1.651000X1.206500X-1.651000X-1.206500X0*%
%ADD31RoundRect,0.250000X-0.250000X-0.475000X0.250000X-0.475000X0.250000X0.475000X-0.250000X0.475000X0*%
%ADD32RoundRect,0.218750X0.218750X0.256250X-0.218750X0.256250X-0.218750X-0.256250X0.218750X-0.256250X0*%
%ADD33RoundRect,0.218750X-0.218750X-0.256250X0.218750X-0.256250X0.218750X0.256250X-0.218750X0.256250X0*%
%ADD34RoundRect,0.218750X-0.218750X-0.381250X0.218750X-0.381250X0.218750X0.381250X-0.218750X0.381250X0*%
G04 APERTURE END LIST*
D10*
%TO.C,J2*%
X58501000Y-81256000D02*
X58527000Y-81258000D01*
X58553000Y-81261000D01*
X58579000Y-81266000D01*
X58604000Y-81272000D01*
X58630000Y-81279000D01*
X58654000Y-81288000D01*
X58678000Y-81298000D01*
X58702000Y-81309000D01*
X58725000Y-81322000D01*
X58747000Y-81336000D01*
X58769000Y-81350000D01*
X58790000Y-81366000D01*
X58810000Y-81383000D01*
X58829000Y-81401000D01*
X58847000Y-81420000D01*
X58864000Y-81440000D01*
X58880000Y-81461000D01*
X58894000Y-81483000D01*
X58908000Y-81505000D01*
X58921000Y-81528000D01*
X58932000Y-81552000D01*
X58942000Y-81576000D01*
X58951000Y-81600000D01*
X58958000Y-81626000D01*
X58964000Y-81651000D01*
X58969000Y-81677000D01*
X58972000Y-81703000D01*
X58974000Y-81729000D01*
X58975000Y-81755000D01*
X58975000Y-83100000D01*
X57225000Y-83100000D01*
X57225000Y-81755000D01*
X57226000Y-81729000D01*
X57228000Y-81703000D01*
X57231000Y-81677000D01*
X57236000Y-81651000D01*
X57242000Y-81626000D01*
X57249000Y-81600000D01*
X57258000Y-81576000D01*
X57268000Y-81552000D01*
X57279000Y-81528000D01*
X57292000Y-81505000D01*
X57306000Y-81483000D01*
X57320000Y-81461000D01*
X57336000Y-81440000D01*
X57353000Y-81420000D01*
X57371000Y-81401000D01*
X57390000Y-81383000D01*
X57410000Y-81366000D01*
X57431000Y-81350000D01*
X57453000Y-81336000D01*
X57475000Y-81322000D01*
X57498000Y-81309000D01*
X57522000Y-81298000D01*
X57546000Y-81288000D01*
X57570000Y-81279000D01*
X57596000Y-81272000D01*
X57621000Y-81266000D01*
X57647000Y-81261000D01*
X57673000Y-81258000D01*
X57699000Y-81256000D01*
X57725000Y-81255000D01*
X58475000Y-81255000D01*
X58501000Y-81256000D01*
G36*
X58501000Y-81256000D02*
G01*
X58527000Y-81258000D01*
X58553000Y-81261000D01*
X58579000Y-81266000D01*
X58604000Y-81272000D01*
X58630000Y-81279000D01*
X58654000Y-81288000D01*
X58678000Y-81298000D01*
X58702000Y-81309000D01*
X58725000Y-81322000D01*
X58747000Y-81336000D01*
X58769000Y-81350000D01*
X58790000Y-81366000D01*
X58810000Y-81383000D01*
X58829000Y-81401000D01*
X58847000Y-81420000D01*
X58864000Y-81440000D01*
X58880000Y-81461000D01*
X58894000Y-81483000D01*
X58908000Y-81505000D01*
X58921000Y-81528000D01*
X58932000Y-81552000D01*
X58942000Y-81576000D01*
X58951000Y-81600000D01*
X58958000Y-81626000D01*
X58964000Y-81651000D01*
X58969000Y-81677000D01*
X58972000Y-81703000D01*
X58974000Y-81729000D01*
X58975000Y-81755000D01*
X58975000Y-83100000D01*
X57225000Y-83100000D01*
X57225000Y-81755000D01*
X57226000Y-81729000D01*
X57228000Y-81703000D01*
X57231000Y-81677000D01*
X57236000Y-81651000D01*
X57242000Y-81626000D01*
X57249000Y-81600000D01*
X57258000Y-81576000D01*
X57268000Y-81552000D01*
X57279000Y-81528000D01*
X57292000Y-81505000D01*
X57306000Y-81483000D01*
X57320000Y-81461000D01*
X57336000Y-81440000D01*
X57353000Y-81420000D01*
X57371000Y-81401000D01*
X57390000Y-81383000D01*
X57410000Y-81366000D01*
X57431000Y-81350000D01*
X57453000Y-81336000D01*
X57475000Y-81322000D01*
X57498000Y-81309000D01*
X57522000Y-81298000D01*
X57546000Y-81288000D01*
X57570000Y-81279000D01*
X57596000Y-81272000D01*
X57621000Y-81266000D01*
X57647000Y-81261000D01*
X57673000Y-81258000D01*
X57699000Y-81256000D01*
X57725000Y-81255000D01*
X58475000Y-81255000D01*
X58501000Y-81256000D01*
G37*
X58975000Y-88845000D02*
X58974000Y-88871000D01*
X58972000Y-88897000D01*
X58969000Y-88923000D01*
X58964000Y-88949000D01*
X58958000Y-88974000D01*
X58951000Y-89000000D01*
X58942000Y-89024000D01*
X58932000Y-89048000D01*
X58921000Y-89072000D01*
X58908000Y-89095000D01*
X58894000Y-89117000D01*
X58880000Y-89139000D01*
X58864000Y-89160000D01*
X58847000Y-89180000D01*
X58829000Y-89199000D01*
X58810000Y-89217000D01*
X58790000Y-89234000D01*
X58769000Y-89250000D01*
X58747000Y-89264000D01*
X58725000Y-89278000D01*
X58702000Y-89291000D01*
X58678000Y-89302000D01*
X58654000Y-89312000D01*
X58630000Y-89321000D01*
X58604000Y-89328000D01*
X58579000Y-89334000D01*
X58553000Y-89339000D01*
X58527000Y-89342000D01*
X58501000Y-89344000D01*
X58475000Y-89345000D01*
X57725000Y-89345000D01*
X57699000Y-89344000D01*
X57673000Y-89342000D01*
X57647000Y-89339000D01*
X57621000Y-89334000D01*
X57596000Y-89328000D01*
X57570000Y-89321000D01*
X57546000Y-89312000D01*
X57522000Y-89302000D01*
X57498000Y-89291000D01*
X57475000Y-89278000D01*
X57453000Y-89264000D01*
X57431000Y-89250000D01*
X57410000Y-89234000D01*
X57390000Y-89217000D01*
X57371000Y-89199000D01*
X57353000Y-89180000D01*
X57336000Y-89160000D01*
X57320000Y-89139000D01*
X57306000Y-89117000D01*
X57292000Y-89095000D01*
X57279000Y-89072000D01*
X57268000Y-89048000D01*
X57258000Y-89024000D01*
X57249000Y-89000000D01*
X57242000Y-88974000D01*
X57236000Y-88949000D01*
X57231000Y-88923000D01*
X57228000Y-88897000D01*
X57226000Y-88871000D01*
X57225000Y-88845000D01*
X57225000Y-87500000D01*
X58975000Y-87500000D01*
X58975000Y-88845000D01*
G36*
X58975000Y-88845000D02*
G01*
X58974000Y-88871000D01*
X58972000Y-88897000D01*
X58969000Y-88923000D01*
X58964000Y-88949000D01*
X58958000Y-88974000D01*
X58951000Y-89000000D01*
X58942000Y-89024000D01*
X58932000Y-89048000D01*
X58921000Y-89072000D01*
X58908000Y-89095000D01*
X58894000Y-89117000D01*
X58880000Y-89139000D01*
X58864000Y-89160000D01*
X58847000Y-89180000D01*
X58829000Y-89199000D01*
X58810000Y-89217000D01*
X58790000Y-89234000D01*
X58769000Y-89250000D01*
X58747000Y-89264000D01*
X58725000Y-89278000D01*
X58702000Y-89291000D01*
X58678000Y-89302000D01*
X58654000Y-89312000D01*
X58630000Y-89321000D01*
X58604000Y-89328000D01*
X58579000Y-89334000D01*
X58553000Y-89339000D01*
X58527000Y-89342000D01*
X58501000Y-89344000D01*
X58475000Y-89345000D01*
X57725000Y-89345000D01*
X57699000Y-89344000D01*
X57673000Y-89342000D01*
X57647000Y-89339000D01*
X57621000Y-89334000D01*
X57596000Y-89328000D01*
X57570000Y-89321000D01*
X57546000Y-89312000D01*
X57522000Y-89302000D01*
X57498000Y-89291000D01*
X57475000Y-89278000D01*
X57453000Y-89264000D01*
X57431000Y-89250000D01*
X57410000Y-89234000D01*
X57390000Y-89217000D01*
X57371000Y-89199000D01*
X57353000Y-89180000D01*
X57336000Y-89160000D01*
X57320000Y-89139000D01*
X57306000Y-89117000D01*
X57292000Y-89095000D01*
X57279000Y-89072000D01*
X57268000Y-89048000D01*
X57258000Y-89024000D01*
X57249000Y-89000000D01*
X57242000Y-88974000D01*
X57236000Y-88949000D01*
X57231000Y-88923000D01*
X57228000Y-88897000D01*
X57226000Y-88871000D01*
X57225000Y-88845000D01*
X57225000Y-87500000D01*
X58975000Y-87500000D01*
X58975000Y-88845000D01*
G37*
%TD*%
D11*
%TO.C,J2*%
X60775000Y-84000000D03*
X60775000Y-84650000D03*
X60775000Y-85300000D03*
X60775000Y-85950000D03*
X60775000Y-86600000D03*
D12*
X60800000Y-82650000D03*
X60800000Y-87950000D03*
D13*
X58100000Y-81775000D03*
D14*
X58100000Y-84300000D03*
X58100000Y-86300000D03*
D13*
X58100000Y-88825000D03*
%TD*%
D15*
%TO.C,R6*%
X90200000Y-86512500D03*
X90200000Y-84687500D03*
%TD*%
D16*
%TO.C,S1*%
X76800000Y-78200000D03*
X85000000Y-78200000D03*
D17*
X78900000Y-78200000D03*
D18*
X80900000Y-78200000D03*
X82900000Y-78200000D03*
%TD*%
D19*
%TO.C,H5*%
X88600000Y-91800000D03*
%TD*%
D20*
%TO.C,R7*%
X88287500Y-89200000D03*
X90112500Y-89200000D03*
%TD*%
D21*
%TO.C,U2*%
X82230000Y-85250000D03*
X82230000Y-86200000D03*
X82230000Y-87150000D03*
D22*
X84570000Y-87150000D03*
X84570000Y-86200000D03*
X84570000Y-85250000D03*
%TD*%
D19*
%TO.C,H1*%
X92600000Y-91800000D03*
%TD*%
D23*
%TO.C,D3*%
X92400000Y-81800000D03*
X88400000Y-81800000D03*
%TD*%
D20*
%TO.C,R2*%
X68687500Y-90400000D03*
X70512500Y-90400000D03*
%TD*%
D24*
%TO.C,C5*%
X64000000Y-84450000D03*
X64000000Y-86350000D03*
%TD*%
D25*
%TO.C,C3*%
X86800000Y-87187500D03*
X86800000Y-85287500D03*
%TD*%
D24*
%TO.C,C4*%
X93000000Y-85537500D03*
X93000000Y-87437500D03*
%TD*%
D26*
%TO.C,Q1*%
X73745000Y-89050000D03*
X73745000Y-90000000D03*
X73745000Y-90950000D03*
X76255000Y-90950000D03*
X76255000Y-90000000D03*
X76255000Y-89050000D03*
%TD*%
D27*
%TO.C,R3*%
X73025000Y-79800000D03*
X71200000Y-79800000D03*
%TD*%
%TO.C,R1*%
X68925000Y-79745000D03*
X67100000Y-79745000D03*
%TD*%
D28*
%TO.C,IC1*%
X74050000Y-86500000D03*
X75000000Y-86500000D03*
X75950000Y-86500000D03*
X75950000Y-83900000D03*
X75000000Y-83960000D03*
X74050000Y-83900000D03*
%TD*%
D29*
%TO.C,U1*%
X67495000Y-87675000D03*
X68765000Y-87675000D03*
X70035000Y-87675000D03*
X71305000Y-87675000D03*
X71305000Y-82725000D03*
X70035000Y-82725000D03*
X68765000Y-82725000D03*
X67495000Y-82725000D03*
D30*
X69400000Y-85200000D03*
%TD*%
D19*
%TO.C,H4*%
X88800000Y-78400000D03*
%TD*%
D31*
%TO.C,C2*%
X74050000Y-81800000D03*
X75950000Y-81800000D03*
%TD*%
D32*
%TO.C,D2*%
X72587500Y-77600000D03*
X71012500Y-77600000D03*
%TD*%
D19*
%TO.C,H2*%
X92800000Y-78400000D03*
%TD*%
D33*
%TO.C,D1*%
X67225000Y-77600000D03*
X68800000Y-77600000D03*
%TD*%
D20*
%TO.C,R4*%
X78775000Y-81800000D03*
X80600000Y-81800000D03*
%TD*%
D34*
%TO.C,L1*%
X83600000Y-82600000D03*
X85725000Y-82600000D03*
%TD*%
D20*
%TO.C,R5*%
X77975000Y-87000000D03*
X79800000Y-87000000D03*
%TD*%
M02*
