%TF.GenerationSoftware,KiCad,Pcbnew,8.0.1*%
%TF.CreationDate,2024-04-19T14:44:52+05:30*%
%TF.ProjectId,Li-po_charger_with_BOOST,4c692d70-6f5f-4636-9861-726765725f77,rev?*%
%TF.SameCoordinates,Original*%
%TF.FileFunction,Paste,Top*%
%TF.FilePolarity,Positive*%
%FSLAX46Y46*%
G04 Gerber Fmt 4.6, Leading zero omitted, Abs format (unit mm)*
G04 Created by KiCad (PCBNEW 8.0.1) date 2024-04-19 14:44:52*
%MOMM*%
%LPD*%
G01*
G04 APERTURE LIST*
G04 Aperture macros list*
%AMRoundRect*
0 Rectangle with rounded corners*
0 $1 Rounding radius*
0 $2 $3 $4 $5 $6 $7 $8 $9 X,Y pos of 4 corners*
0 Add a 4 corners polygon primitive as box body*
4,1,4,$2,$3,$4,$5,$6,$7,$8,$9,$2,$3,0*
0 Add four circle primitives for the rounded corners*
1,1,$1+$1,$2,$3*
1,1,$1+$1,$4,$5*
1,1,$1+$1,$6,$7*
1,1,$1+$1,$8,$9*
0 Add four rect primitives between the rounded corners*
20,1,$1+$1,$2,$3,$4,$5,0*
20,1,$1+$1,$4,$5,$6,$7,0*
20,1,$1+$1,$6,$7,$8,$9,0*
20,1,$1+$1,$8,$9,$2,$3,0*%
G04 Aperture macros list end*
%ADD10C,0.010000*%
%ADD11R,1.350000X0.400000*%
%ADD12R,1.550000X1.500000*%
%ADD13RoundRect,0.250000X0.450000X-0.262500X0.450000X0.262500X-0.450000X0.262500X-0.450000X-0.262500X0*%
%ADD14RoundRect,0.250000X-0.262500X-0.450000X0.262500X-0.450000X0.262500X0.450000X-0.262500X0.450000X0*%
%ADD15RoundRect,0.088500X-0.596500X-0.206500X0.596500X-0.206500X0.596500X0.206500X-0.596500X0.206500X0*%
%ADD16RoundRect,0.088500X0.596500X0.206500X-0.596500X0.206500X-0.596500X-0.206500X0.596500X-0.206500X0*%
%ADD17RoundRect,0.250000X1.000000X0.650000X-1.000000X0.650000X-1.000000X-0.650000X1.000000X-0.650000X0*%
%ADD18RoundRect,0.250000X-0.475000X0.250000X-0.475000X-0.250000X0.475000X-0.250000X0.475000X0.250000X0*%
%ADD19RoundRect,0.250000X0.475000X-0.250000X0.475000X0.250000X-0.475000X0.250000X-0.475000X-0.250000X0*%
%ADD20RoundRect,0.088500X-0.516500X-0.206500X0.516500X-0.206500X0.516500X0.206500X-0.516500X0.206500X0*%
%ADD21RoundRect,0.250000X0.262500X0.450000X-0.262500X0.450000X-0.262500X-0.450000X0.262500X-0.450000X0*%
%ADD22R,0.600000X1.100000*%
%ADD23RoundRect,0.042000X0.258000X-0.943000X0.258000X0.943000X-0.258000X0.943000X-0.258000X-0.943000X0*%
%ADD24RoundRect,0.250000X-0.250000X-0.475000X0.250000X-0.475000X0.250000X0.475000X-0.250000X0.475000X0*%
%ADD25RoundRect,0.218750X0.218750X0.256250X-0.218750X0.256250X-0.218750X-0.256250X0.218750X-0.256250X0*%
%ADD26RoundRect,0.218750X-0.218750X-0.256250X0.218750X-0.256250X0.218750X0.256250X-0.218750X0.256250X0*%
%ADD27RoundRect,0.218750X-0.218750X-0.381250X0.218750X-0.381250X0.218750X0.381250X-0.218750X0.381250X0*%
G04 APERTURE END LIST*
D10*
%TO.C,J2*%
X58401000Y-81356000D02*
X58427000Y-81358000D01*
X58453000Y-81361000D01*
X58479000Y-81366000D01*
X58504000Y-81372000D01*
X58530000Y-81379000D01*
X58554000Y-81388000D01*
X58578000Y-81398000D01*
X58602000Y-81409000D01*
X58625000Y-81422000D01*
X58647000Y-81436000D01*
X58669000Y-81450000D01*
X58690000Y-81466000D01*
X58710000Y-81483000D01*
X58729000Y-81501000D01*
X58747000Y-81520000D01*
X58764000Y-81540000D01*
X58780000Y-81561000D01*
X58794000Y-81583000D01*
X58808000Y-81605000D01*
X58821000Y-81628000D01*
X58832000Y-81652000D01*
X58842000Y-81676000D01*
X58851000Y-81700000D01*
X58858000Y-81726000D01*
X58864000Y-81751000D01*
X58869000Y-81777000D01*
X58872000Y-81803000D01*
X58874000Y-81829000D01*
X58875000Y-81855000D01*
X58875000Y-83000000D01*
X57325000Y-83000000D01*
X57325000Y-81855000D01*
X57326000Y-81829000D01*
X57328000Y-81803000D01*
X57331000Y-81777000D01*
X57336000Y-81751000D01*
X57342000Y-81726000D01*
X57349000Y-81700000D01*
X57358000Y-81676000D01*
X57368000Y-81652000D01*
X57379000Y-81628000D01*
X57392000Y-81605000D01*
X57406000Y-81583000D01*
X57420000Y-81561000D01*
X57436000Y-81540000D01*
X57453000Y-81520000D01*
X57471000Y-81501000D01*
X57490000Y-81483000D01*
X57510000Y-81466000D01*
X57531000Y-81450000D01*
X57553000Y-81436000D01*
X57575000Y-81422000D01*
X57598000Y-81409000D01*
X57622000Y-81398000D01*
X57646000Y-81388000D01*
X57670000Y-81379000D01*
X57696000Y-81372000D01*
X57721000Y-81366000D01*
X57747000Y-81361000D01*
X57773000Y-81358000D01*
X57799000Y-81356000D01*
X57825000Y-81355000D01*
X58375000Y-81355000D01*
X58401000Y-81356000D01*
G36*
X58401000Y-81356000D02*
G01*
X58427000Y-81358000D01*
X58453000Y-81361000D01*
X58479000Y-81366000D01*
X58504000Y-81372000D01*
X58530000Y-81379000D01*
X58554000Y-81388000D01*
X58578000Y-81398000D01*
X58602000Y-81409000D01*
X58625000Y-81422000D01*
X58647000Y-81436000D01*
X58669000Y-81450000D01*
X58690000Y-81466000D01*
X58710000Y-81483000D01*
X58729000Y-81501000D01*
X58747000Y-81520000D01*
X58764000Y-81540000D01*
X58780000Y-81561000D01*
X58794000Y-81583000D01*
X58808000Y-81605000D01*
X58821000Y-81628000D01*
X58832000Y-81652000D01*
X58842000Y-81676000D01*
X58851000Y-81700000D01*
X58858000Y-81726000D01*
X58864000Y-81751000D01*
X58869000Y-81777000D01*
X58872000Y-81803000D01*
X58874000Y-81829000D01*
X58875000Y-81855000D01*
X58875000Y-83000000D01*
X57325000Y-83000000D01*
X57325000Y-81855000D01*
X57326000Y-81829000D01*
X57328000Y-81803000D01*
X57331000Y-81777000D01*
X57336000Y-81751000D01*
X57342000Y-81726000D01*
X57349000Y-81700000D01*
X57358000Y-81676000D01*
X57368000Y-81652000D01*
X57379000Y-81628000D01*
X57392000Y-81605000D01*
X57406000Y-81583000D01*
X57420000Y-81561000D01*
X57436000Y-81540000D01*
X57453000Y-81520000D01*
X57471000Y-81501000D01*
X57490000Y-81483000D01*
X57510000Y-81466000D01*
X57531000Y-81450000D01*
X57553000Y-81436000D01*
X57575000Y-81422000D01*
X57598000Y-81409000D01*
X57622000Y-81398000D01*
X57646000Y-81388000D01*
X57670000Y-81379000D01*
X57696000Y-81372000D01*
X57721000Y-81366000D01*
X57747000Y-81361000D01*
X57773000Y-81358000D01*
X57799000Y-81356000D01*
X57825000Y-81355000D01*
X58375000Y-81355000D01*
X58401000Y-81356000D01*
G37*
X58875000Y-88745000D02*
X58874000Y-88771000D01*
X58872000Y-88797000D01*
X58869000Y-88823000D01*
X58864000Y-88849000D01*
X58858000Y-88874000D01*
X58851000Y-88900000D01*
X58842000Y-88924000D01*
X58832000Y-88948000D01*
X58821000Y-88972000D01*
X58808000Y-88995000D01*
X58794000Y-89017000D01*
X58780000Y-89039000D01*
X58764000Y-89060000D01*
X58747000Y-89080000D01*
X58729000Y-89099000D01*
X58710000Y-89117000D01*
X58690000Y-89134000D01*
X58669000Y-89150000D01*
X58647000Y-89164000D01*
X58625000Y-89178000D01*
X58602000Y-89191000D01*
X58578000Y-89202000D01*
X58554000Y-89212000D01*
X58530000Y-89221000D01*
X58504000Y-89228000D01*
X58479000Y-89234000D01*
X58453000Y-89239000D01*
X58427000Y-89242000D01*
X58401000Y-89244000D01*
X58375000Y-89245000D01*
X57825000Y-89245000D01*
X57799000Y-89244000D01*
X57773000Y-89242000D01*
X57747000Y-89239000D01*
X57721000Y-89234000D01*
X57696000Y-89228000D01*
X57670000Y-89221000D01*
X57646000Y-89212000D01*
X57622000Y-89202000D01*
X57598000Y-89191000D01*
X57575000Y-89178000D01*
X57553000Y-89164000D01*
X57531000Y-89150000D01*
X57510000Y-89134000D01*
X57490000Y-89117000D01*
X57471000Y-89099000D01*
X57453000Y-89080000D01*
X57436000Y-89060000D01*
X57420000Y-89039000D01*
X57406000Y-89017000D01*
X57392000Y-88995000D01*
X57379000Y-88972000D01*
X57368000Y-88948000D01*
X57358000Y-88924000D01*
X57349000Y-88900000D01*
X57342000Y-88874000D01*
X57336000Y-88849000D01*
X57331000Y-88823000D01*
X57328000Y-88797000D01*
X57326000Y-88771000D01*
X57325000Y-88745000D01*
X57325000Y-87600000D01*
X58875000Y-87600000D01*
X58875000Y-88745000D01*
G36*
X58875000Y-88745000D02*
G01*
X58874000Y-88771000D01*
X58872000Y-88797000D01*
X58869000Y-88823000D01*
X58864000Y-88849000D01*
X58858000Y-88874000D01*
X58851000Y-88900000D01*
X58842000Y-88924000D01*
X58832000Y-88948000D01*
X58821000Y-88972000D01*
X58808000Y-88995000D01*
X58794000Y-89017000D01*
X58780000Y-89039000D01*
X58764000Y-89060000D01*
X58747000Y-89080000D01*
X58729000Y-89099000D01*
X58710000Y-89117000D01*
X58690000Y-89134000D01*
X58669000Y-89150000D01*
X58647000Y-89164000D01*
X58625000Y-89178000D01*
X58602000Y-89191000D01*
X58578000Y-89202000D01*
X58554000Y-89212000D01*
X58530000Y-89221000D01*
X58504000Y-89228000D01*
X58479000Y-89234000D01*
X58453000Y-89239000D01*
X58427000Y-89242000D01*
X58401000Y-89244000D01*
X58375000Y-89245000D01*
X57825000Y-89245000D01*
X57799000Y-89244000D01*
X57773000Y-89242000D01*
X57747000Y-89239000D01*
X57721000Y-89234000D01*
X57696000Y-89228000D01*
X57670000Y-89221000D01*
X57646000Y-89212000D01*
X57622000Y-89202000D01*
X57598000Y-89191000D01*
X57575000Y-89178000D01*
X57553000Y-89164000D01*
X57531000Y-89150000D01*
X57510000Y-89134000D01*
X57490000Y-89117000D01*
X57471000Y-89099000D01*
X57453000Y-89080000D01*
X57436000Y-89060000D01*
X57420000Y-89039000D01*
X57406000Y-89017000D01*
X57392000Y-88995000D01*
X57379000Y-88972000D01*
X57368000Y-88948000D01*
X57358000Y-88924000D01*
X57349000Y-88900000D01*
X57342000Y-88874000D01*
X57336000Y-88849000D01*
X57331000Y-88823000D01*
X57328000Y-88797000D01*
X57326000Y-88771000D01*
X57325000Y-88745000D01*
X57325000Y-87600000D01*
X58875000Y-87600000D01*
X58875000Y-88745000D01*
G37*
%TO.C,U1*%
X70220000Y-85845000D02*
X68580000Y-85845000D01*
X68580000Y-84555000D01*
X70220000Y-84555000D01*
X70220000Y-85845000D01*
G36*
X70220000Y-85845000D02*
G01*
X68580000Y-85845000D01*
X68580000Y-84555000D01*
X70220000Y-84555000D01*
X70220000Y-85845000D01*
G37*
%TD*%
D11*
%TO.C,J2*%
X60775000Y-84000000D03*
X60775000Y-84650000D03*
X60775000Y-85300000D03*
X60775000Y-85950000D03*
X60775000Y-86600000D03*
D12*
X58100000Y-84300000D03*
X58100000Y-86300000D03*
%TD*%
D13*
%TO.C,R6*%
X90200000Y-86512500D03*
X90200000Y-84687500D03*
%TD*%
D14*
%TO.C,R7*%
X88287500Y-89200000D03*
X90112500Y-89200000D03*
%TD*%
D15*
%TO.C,U2*%
X82230000Y-85250000D03*
X82230000Y-86200000D03*
X82230000Y-87150000D03*
D16*
X84570000Y-87150000D03*
X84570000Y-86200000D03*
X84570000Y-85250000D03*
%TD*%
D17*
%TO.C,D3*%
X92400000Y-81800000D03*
X88400000Y-81800000D03*
%TD*%
D14*
%TO.C,R2*%
X68687500Y-90400000D03*
X70512500Y-90400000D03*
%TD*%
D18*
%TO.C,C5*%
X64000000Y-84450000D03*
X64000000Y-86350000D03*
%TD*%
D19*
%TO.C,C3*%
X86800000Y-87187500D03*
X86800000Y-85287500D03*
%TD*%
D18*
%TO.C,C4*%
X93000000Y-85537500D03*
X93000000Y-87437500D03*
%TD*%
D20*
%TO.C,Q1*%
X73745000Y-89050000D03*
X73745000Y-90000000D03*
X73745000Y-90950000D03*
X76255000Y-90950000D03*
X76255000Y-90000000D03*
X76255000Y-89050000D03*
%TD*%
D21*
%TO.C,R3*%
X73025000Y-79800000D03*
X71200000Y-79800000D03*
%TD*%
%TO.C,R1*%
X68925000Y-79745000D03*
X67100000Y-79745000D03*
%TD*%
D22*
%TO.C,IC1*%
X74050000Y-86500000D03*
X75000000Y-86500000D03*
X75950000Y-86500000D03*
X75950000Y-83900000D03*
X75000000Y-83960000D03*
X74050000Y-83900000D03*
%TD*%
D23*
%TO.C,U1*%
X67495000Y-87675000D03*
X68765000Y-87675000D03*
X70035000Y-87675000D03*
X71305000Y-87675000D03*
X71305000Y-82725000D03*
X70035000Y-82725000D03*
X68765000Y-82725000D03*
X67495000Y-82725000D03*
%TD*%
D24*
%TO.C,C2*%
X74050000Y-81800000D03*
X75950000Y-81800000D03*
%TD*%
D25*
%TO.C,D2*%
X72587500Y-77600000D03*
X71012500Y-77600000D03*
%TD*%
D26*
%TO.C,D1*%
X67225000Y-77600000D03*
X68800000Y-77600000D03*
%TD*%
D14*
%TO.C,R4*%
X78775000Y-81800000D03*
X80600000Y-81800000D03*
%TD*%
D27*
%TO.C,L1*%
X83600000Y-82600000D03*
X85725000Y-82600000D03*
%TD*%
D14*
%TO.C,R5*%
X77975000Y-87000000D03*
X79800000Y-87000000D03*
%TD*%
M02*
