%TF.GenerationSoftware,KiCad,Pcbnew,8.0.1*%
%TF.CreationDate,2024-04-19T14:44:52+05:30*%
%TF.ProjectId,Li-po_charger_with_BOOST,4c692d70-6f5f-4636-9861-726765725f77,rev?*%
%TF.SameCoordinates,Original*%
%TF.FileFunction,Copper,L2,Bot*%
%TF.FilePolarity,Positive*%
%FSLAX46Y46*%
G04 Gerber Fmt 4.6, Leading zero omitted, Abs format (unit mm)*
G04 Created by KiCad (PCBNEW 8.0.1) date 2024-04-19 14:44:52*
%MOMM*%
%LPD*%
G01*
G04 APERTURE LIST*
%TA.AperFunction,ComponentPad*%
%ADD10O,0.800000X1.300000*%
%TD*%
%TA.AperFunction,ComponentPad*%
%ADD11O,1.500000X0.750000*%
%TD*%
%TA.AperFunction,ComponentPad*%
%ADD12R,1.308000X1.308000*%
%TD*%
%TA.AperFunction,ComponentPad*%
%ADD13C,1.308000*%
%TD*%
%TA.AperFunction,ComponentPad*%
%ADD14R,2.000000X2.000000*%
%TD*%
%TA.AperFunction,ViaPad*%
%ADD15C,0.600000*%
%TD*%
%TA.AperFunction,Conductor*%
%ADD16C,0.200000*%
%TD*%
G04 APERTURE END LIST*
D10*
%TO.P,J2,S1,SHIELD*%
%TO.N,unconnected-(J2-SHIELD-PadS1)_0*%
X60800000Y-82650000D03*
%TO.P,J2,S2,SHIELD*%
%TO.N,unconnected-(J2-SHIELD-PadS1)_1*%
X60800000Y-87950000D03*
D11*
%TO.P,J2,S3,SHIELD*%
%TO.N,unconnected-(J2-SHIELD-PadS1)_3*%
X58100000Y-81775000D03*
%TO.P,J2,S6,SHIELD*%
%TO.N,unconnected-(J2-SHIELD-PadS1)_4*%
X58100000Y-88825000D03*
%TD*%
D12*
%TO.P,S1,1,1*%
%TO.N,Net-(U2-EN)*%
X78900000Y-78200000D03*
D13*
%TO.P,S1,2,2*%
%TO.N,/BAT*%
X80900000Y-78200000D03*
%TO.P,S1,3,3*%
%TO.N,unconnected-(S1-Pad3)*%
X82900000Y-78200000D03*
%TD*%
D14*
%TO.P,H5,1,1*%
%TO.N,Net-(D3-K)*%
X88600000Y-91800000D03*
%TD*%
%TO.P,H1,1,1*%
%TO.N,/BAT*%
X92600000Y-91800000D03*
%TD*%
%TO.P,H4,1,1*%
%TO.N,GND*%
X88800000Y-78400000D03*
%TD*%
%TO.P,H2,1,1*%
%TO.N,/BAT-*%
X92800000Y-78400000D03*
%TD*%
D15*
%TO.N,/BAT-*%
X73000000Y-84000000D03*
X72800000Y-82400000D03*
%TO.N,/VBUS*%
X67204100Y-84810000D03*
X72108500Y-87270600D03*
%TO.N,GND*%
X70572500Y-89114000D03*
X87904000Y-84599800D03*
X80929100Y-87000000D03*
X94242500Y-87257000D03*
X89064400Y-90214900D03*
%TD*%
D16*
%TO.N,/BAT*%
X92600000Y-91800000D02*
X92600000Y-90498300D01*
X80900000Y-78798300D02*
X92600000Y-90498300D01*
X80900000Y-78200000D02*
X80900000Y-78798300D01*
%TO.N,/BAT-*%
X72800000Y-82400000D02*
X72800000Y-83777800D01*
X72800000Y-83800000D02*
X73000000Y-84000000D01*
X72800000Y-83777800D02*
X72800000Y-83800000D01*
X89979500Y-76881200D02*
X91498300Y-78400000D01*
X80819900Y-76881200D02*
X89979500Y-76881200D01*
X79897000Y-77804100D02*
X80819900Y-76881200D01*
X79897000Y-78937700D02*
X79897000Y-77804100D01*
X75056900Y-83777800D02*
X79897000Y-78937700D01*
X72800000Y-83777800D02*
X75056900Y-83777800D01*
X92800000Y-78400000D02*
X91498300Y-78400000D01*
%TO.N,/VBUS*%
X69647900Y-84810000D02*
X72108500Y-87270600D01*
X67204100Y-84810000D02*
X69647900Y-84810000D01*
%TD*%
%TA.AperFunction,Conductor*%
%TO.N,GND*%
G36*
X95042539Y-75920185D02*
G01*
X95088294Y-75972989D01*
X95099500Y-76024500D01*
X95099500Y-93175500D01*
X95079815Y-93242539D01*
X95027011Y-93288294D01*
X94975500Y-93299500D01*
X93800520Y-93299500D01*
X93733481Y-93279815D01*
X93687726Y-93227011D01*
X93677782Y-93157853D01*
X93706807Y-93094297D01*
X93750430Y-93062067D01*
X93772765Y-93052206D01*
X93852206Y-92972765D01*
X93897585Y-92869991D01*
X93900500Y-92844865D01*
X93900499Y-90755136D01*
X93900497Y-90755117D01*
X93897586Y-90730012D01*
X93897585Y-90730010D01*
X93897585Y-90730009D01*
X93852206Y-90627235D01*
X93772765Y-90547794D01*
X93772763Y-90547793D01*
X93669992Y-90502415D01*
X93644868Y-90499500D01*
X93644865Y-90499500D01*
X93110099Y-90499500D01*
X93043060Y-90479815D01*
X92997305Y-90427011D01*
X92990324Y-90407594D01*
X92973207Y-90343713D01*
X92920480Y-90252387D01*
X92845913Y-90177820D01*
X92845912Y-90177819D01*
X92841582Y-90173489D01*
X92841571Y-90173479D01*
X81643286Y-78975193D01*
X81609801Y-78913870D01*
X81614785Y-78844178D01*
X81635114Y-78808847D01*
X81641964Y-78800501D01*
X81697477Y-78732857D01*
X81697477Y-78732855D01*
X81697481Y-78732851D01*
X81788981Y-78561667D01*
X81790444Y-78562449D01*
X81829271Y-78514259D01*
X81895563Y-78492188D01*
X81963264Y-78509462D01*
X82010879Y-78560595D01*
X82013420Y-78566159D01*
X82102518Y-78732851D01*
X82102523Y-78732857D01*
X82221800Y-78878199D01*
X82339990Y-78975193D01*
X82358552Y-78990427D01*
X82367142Y-78997476D01*
X82367148Y-78997481D01*
X82531352Y-79085249D01*
X82532961Y-79086109D01*
X82659930Y-79124625D01*
X82712882Y-79140688D01*
X82712884Y-79140689D01*
X82729660Y-79142341D01*
X82900000Y-79159118D01*
X83087115Y-79140689D01*
X83267039Y-79086109D01*
X83359411Y-79036735D01*
X83432851Y-78997481D01*
X83432853Y-78997478D01*
X83432857Y-78997477D01*
X83578199Y-78878199D01*
X83697477Y-78732857D01*
X83697478Y-78732853D01*
X83697481Y-78732851D01*
X83786107Y-78567043D01*
X83786107Y-78567042D01*
X83786109Y-78567039D01*
X83805143Y-78504291D01*
X83843440Y-78445855D01*
X83907252Y-78417399D01*
X83976319Y-78427959D01*
X84028713Y-78474183D01*
X84038364Y-78492837D01*
X84113364Y-78673907D01*
X84113371Y-78673920D01*
X84222860Y-78837781D01*
X84222863Y-78837785D01*
X84362214Y-78977136D01*
X84362218Y-78977139D01*
X84526079Y-79086628D01*
X84526092Y-79086635D01*
X84701084Y-79159118D01*
X84708165Y-79162051D01*
X84708169Y-79162051D01*
X84708170Y-79162052D01*
X84901456Y-79200500D01*
X84901459Y-79200500D01*
X85098543Y-79200500D01*
X85230844Y-79174183D01*
X85291835Y-79162051D01*
X85473914Y-79086632D01*
X85637782Y-78977139D01*
X85777139Y-78837782D01*
X85886632Y-78673914D01*
X85962051Y-78491835D01*
X86000500Y-78298541D01*
X86000500Y-78101459D01*
X86000500Y-78101456D01*
X85962052Y-77908170D01*
X85962051Y-77908169D01*
X85962051Y-77908165D01*
X85934004Y-77840453D01*
X85886635Y-77726092D01*
X85886628Y-77726079D01*
X85777139Y-77562218D01*
X85777136Y-77562214D01*
X85708303Y-77493381D01*
X85674818Y-77432058D01*
X85679802Y-77362366D01*
X85721674Y-77306433D01*
X85787138Y-77282016D01*
X85795984Y-77281700D01*
X87176000Y-77281700D01*
X87243039Y-77301385D01*
X87288794Y-77354189D01*
X87300000Y-77405700D01*
X87300000Y-78150000D01*
X88366988Y-78150000D01*
X88334075Y-78207007D01*
X88300000Y-78334174D01*
X88300000Y-78465826D01*
X88334075Y-78592993D01*
X88366988Y-78650000D01*
X87300000Y-78650000D01*
X87300000Y-79447844D01*
X87306401Y-79507372D01*
X87306403Y-79507379D01*
X87356645Y-79642086D01*
X87356649Y-79642093D01*
X87442809Y-79757187D01*
X87442812Y-79757190D01*
X87557906Y-79843350D01*
X87557913Y-79843354D01*
X87692620Y-79893596D01*
X87692627Y-79893598D01*
X87752155Y-79899999D01*
X87752172Y-79900000D01*
X88550000Y-79900000D01*
X88550000Y-78833012D01*
X88607007Y-78865925D01*
X88734174Y-78900000D01*
X88865826Y-78900000D01*
X88992993Y-78865925D01*
X89050000Y-78833012D01*
X89050000Y-79900000D01*
X89847828Y-79900000D01*
X89847844Y-79899999D01*
X89907372Y-79893598D01*
X89907379Y-79893596D01*
X90042086Y-79843354D01*
X90042093Y-79843350D01*
X90157187Y-79757190D01*
X90157190Y-79757187D01*
X90243350Y-79642093D01*
X90243354Y-79642086D01*
X90293596Y-79507379D01*
X90293598Y-79507372D01*
X90299999Y-79447844D01*
X90300000Y-79447827D01*
X90300000Y-78650000D01*
X89233012Y-78650000D01*
X89265925Y-78592993D01*
X89300000Y-78465826D01*
X89300000Y-78334174D01*
X89265925Y-78207007D01*
X89233012Y-78150000D01*
X90300000Y-78150000D01*
X90300000Y-78067454D01*
X90319685Y-78000415D01*
X90372489Y-77954660D01*
X90441647Y-77944716D01*
X90505203Y-77973741D01*
X90511681Y-77979773D01*
X91173479Y-78641571D01*
X91173489Y-78641582D01*
X91177819Y-78645912D01*
X91177820Y-78645913D01*
X91252387Y-78720480D01*
X91343713Y-78773207D01*
X91407596Y-78790325D01*
X91467255Y-78826689D01*
X91497784Y-78889536D01*
X91499501Y-78910099D01*
X91499501Y-79444856D01*
X91499502Y-79444882D01*
X91502413Y-79469987D01*
X91502415Y-79469991D01*
X91547793Y-79572764D01*
X91547794Y-79572765D01*
X91627235Y-79652206D01*
X91730009Y-79697585D01*
X91755135Y-79700500D01*
X93844864Y-79700499D01*
X93844879Y-79700497D01*
X93844882Y-79700497D01*
X93869987Y-79697586D01*
X93869988Y-79697585D01*
X93869991Y-79697585D01*
X93972765Y-79652206D01*
X94052206Y-79572765D01*
X94097585Y-79469991D01*
X94100500Y-79444865D01*
X94100499Y-77355136D01*
X94100004Y-77350868D01*
X94097586Y-77330012D01*
X94097585Y-77330010D01*
X94097585Y-77330009D01*
X94052206Y-77227235D01*
X93972765Y-77147794D01*
X93972763Y-77147793D01*
X93869992Y-77102415D01*
X93844865Y-77099500D01*
X91755143Y-77099500D01*
X91755117Y-77099502D01*
X91730012Y-77102413D01*
X91730008Y-77102415D01*
X91627235Y-77147793D01*
X91547794Y-77227234D01*
X91502415Y-77330006D01*
X91502415Y-77330008D01*
X91499500Y-77355131D01*
X91499500Y-77535445D01*
X91479815Y-77602484D01*
X91427011Y-77648239D01*
X91357853Y-77658183D01*
X91294297Y-77629158D01*
X91287819Y-77623126D01*
X90225415Y-76560722D01*
X90225414Y-76560721D01*
X90225413Y-76560720D01*
X90179750Y-76534356D01*
X90134089Y-76507993D01*
X90083157Y-76494346D01*
X90032227Y-76480700D01*
X90032226Y-76480700D01*
X80880239Y-76480700D01*
X80880223Y-76480699D01*
X80872627Y-76480699D01*
X80767173Y-76480699D01*
X80699266Y-76498895D01*
X80665312Y-76507993D01*
X80573984Y-76560722D01*
X80499418Y-76635289D01*
X79866012Y-77268694D01*
X79804689Y-77302179D01*
X79734997Y-77297195D01*
X79728245Y-77294447D01*
X79623995Y-77248416D01*
X79623991Y-77248415D01*
X79598865Y-77245500D01*
X78201143Y-77245500D01*
X78201117Y-77245502D01*
X78176012Y-77248413D01*
X78176008Y-77248415D01*
X78073235Y-77293793D01*
X77993794Y-77373234D01*
X77948415Y-77476006D01*
X77948415Y-77476008D01*
X77945500Y-77501131D01*
X77945500Y-77727659D01*
X77925815Y-77794698D01*
X77873011Y-77840453D01*
X77803853Y-77850397D01*
X77740297Y-77821372D01*
X77706939Y-77775111D01*
X77686635Y-77726092D01*
X77686628Y-77726079D01*
X77577139Y-77562218D01*
X77577136Y-77562214D01*
X77437785Y-77422863D01*
X77437781Y-77422860D01*
X77273920Y-77313371D01*
X77273907Y-77313364D01*
X77091839Y-77237950D01*
X77091829Y-77237947D01*
X76898543Y-77199500D01*
X76898541Y-77199500D01*
X76701459Y-77199500D01*
X76701457Y-77199500D01*
X76508170Y-77237947D01*
X76508160Y-77237950D01*
X76326092Y-77313364D01*
X76326079Y-77313371D01*
X76162218Y-77422860D01*
X76162214Y-77422863D01*
X76022863Y-77562214D01*
X76022860Y-77562218D01*
X75913371Y-77726079D01*
X75913364Y-77726092D01*
X75837950Y-77908160D01*
X75837947Y-77908170D01*
X75799500Y-78101456D01*
X75799500Y-78101459D01*
X75799500Y-78298541D01*
X75799500Y-78298543D01*
X75799499Y-78298543D01*
X75837947Y-78491829D01*
X75837950Y-78491839D01*
X75913364Y-78673907D01*
X75913371Y-78673920D01*
X76022860Y-78837781D01*
X76022863Y-78837785D01*
X76162214Y-78977136D01*
X76162218Y-78977139D01*
X76326079Y-79086628D01*
X76326092Y-79086635D01*
X76501084Y-79159118D01*
X76508165Y-79162051D01*
X76508169Y-79162051D01*
X76508170Y-79162052D01*
X76701456Y-79200500D01*
X76701459Y-79200500D01*
X76898543Y-79200500D01*
X77030844Y-79174183D01*
X77091835Y-79162051D01*
X77273914Y-79086632D01*
X77437782Y-78977139D01*
X77577139Y-78837782D01*
X77686632Y-78673914D01*
X77706939Y-78624887D01*
X77750778Y-78570484D01*
X77817072Y-78548418D01*
X77884771Y-78565696D01*
X77932383Y-78616832D01*
X77945500Y-78672338D01*
X77945500Y-78898856D01*
X77945502Y-78898882D01*
X77948413Y-78923987D01*
X77948415Y-78923991D01*
X77993793Y-79026764D01*
X77993794Y-79026765D01*
X78073235Y-79106206D01*
X78176009Y-79151585D01*
X78201135Y-79154500D01*
X78814445Y-79154499D01*
X78881483Y-79174183D01*
X78927238Y-79226987D01*
X78937182Y-79296146D01*
X78908157Y-79359702D01*
X78902125Y-79366180D01*
X74927326Y-83340981D01*
X74866003Y-83374466D01*
X74839645Y-83377300D01*
X73324500Y-83377300D01*
X73257461Y-83357615D01*
X73211706Y-83304811D01*
X73200500Y-83253300D01*
X73200500Y-82906580D01*
X73220185Y-82839541D01*
X73226124Y-82831093D01*
X73228279Y-82828283D01*
X73228282Y-82828282D01*
X73324536Y-82702841D01*
X73385044Y-82556762D01*
X73405682Y-82400000D01*
X73402209Y-82373623D01*
X73385044Y-82243239D01*
X73385044Y-82243238D01*
X73324536Y-82097159D01*
X73228282Y-81971718D01*
X73102841Y-81875464D01*
X73055580Y-81855888D01*
X72956762Y-81814956D01*
X72956760Y-81814955D01*
X72800001Y-81794318D01*
X72799999Y-81794318D01*
X72643239Y-81814955D01*
X72643237Y-81814956D01*
X72497160Y-81875463D01*
X72371718Y-81971718D01*
X72275463Y-82097160D01*
X72214956Y-82243237D01*
X72214955Y-82243239D01*
X72194318Y-82399998D01*
X72194318Y-82400001D01*
X72214955Y-82556760D01*
X72214956Y-82556762D01*
X72275464Y-82702841D01*
X72371718Y-82828282D01*
X72371720Y-82828283D01*
X72373876Y-82831093D01*
X72399070Y-82896263D01*
X72399500Y-82906580D01*
X72399500Y-83852726D01*
X72402643Y-83864457D01*
X72405806Y-83912731D01*
X72394318Y-83999997D01*
X72394318Y-84000001D01*
X72414955Y-84156760D01*
X72414956Y-84156762D01*
X72443202Y-84224955D01*
X72475464Y-84302841D01*
X72571718Y-84428282D01*
X72697159Y-84524536D01*
X72843238Y-84585044D01*
X72921619Y-84595363D01*
X72999999Y-84605682D01*
X73000000Y-84605682D01*
X73000001Y-84605682D01*
X73052254Y-84598802D01*
X73156762Y-84585044D01*
X73302841Y-84524536D01*
X73428282Y-84428282D01*
X73524536Y-84302841D01*
X73544416Y-84254847D01*
X73588257Y-84200444D01*
X73654551Y-84178379D01*
X73658977Y-84178300D01*
X75109625Y-84178300D01*
X75109627Y-84178300D01*
X75211488Y-84151007D01*
X75302813Y-84098280D01*
X80217480Y-79183613D01*
X80270207Y-79092288D01*
X80270207Y-79092287D01*
X80274271Y-79085249D01*
X80277081Y-79086871D01*
X80311322Y-79044302D01*
X80377596Y-79022176D01*
X80440588Y-79036734D01*
X80532961Y-79086109D01*
X80630212Y-79115609D01*
X80681896Y-79146588D01*
X91823127Y-90287819D01*
X91856612Y-90349142D01*
X91851628Y-90418834D01*
X91809756Y-90474767D01*
X91744292Y-90499184D01*
X91735447Y-90499500D01*
X91555143Y-90499500D01*
X91555117Y-90499502D01*
X91530012Y-90502413D01*
X91530008Y-90502415D01*
X91427235Y-90547793D01*
X91347794Y-90627234D01*
X91302415Y-90730006D01*
X91302415Y-90730008D01*
X91299500Y-90755131D01*
X91299500Y-92844856D01*
X91299502Y-92844882D01*
X91302413Y-92869987D01*
X91302415Y-92869991D01*
X91347793Y-92972764D01*
X91347794Y-92972765D01*
X91427235Y-93052206D01*
X91449564Y-93062065D01*
X91449566Y-93062066D01*
X91502942Y-93107152D01*
X91523469Y-93173939D01*
X91504630Y-93241221D01*
X91452407Y-93287637D01*
X91399479Y-93299500D01*
X89800520Y-93299500D01*
X89733481Y-93279815D01*
X89687726Y-93227011D01*
X89677782Y-93157853D01*
X89706807Y-93094297D01*
X89750430Y-93062067D01*
X89772765Y-93052206D01*
X89852206Y-92972765D01*
X89897585Y-92869991D01*
X89900500Y-92844865D01*
X89900499Y-90755136D01*
X89900497Y-90755117D01*
X89897586Y-90730012D01*
X89897585Y-90730010D01*
X89897585Y-90730009D01*
X89852206Y-90627235D01*
X89772765Y-90547794D01*
X89772763Y-90547793D01*
X89669992Y-90502415D01*
X89644865Y-90499500D01*
X87555143Y-90499500D01*
X87555117Y-90499502D01*
X87530012Y-90502413D01*
X87530008Y-90502415D01*
X87427235Y-90547793D01*
X87347794Y-90627234D01*
X87302415Y-90730006D01*
X87302415Y-90730008D01*
X87299500Y-90755131D01*
X87299500Y-92844856D01*
X87299502Y-92844882D01*
X87302413Y-92869987D01*
X87302415Y-92869991D01*
X87347793Y-92972764D01*
X87347794Y-92972765D01*
X87427235Y-93052206D01*
X87449564Y-93062065D01*
X87449566Y-93062066D01*
X87502942Y-93107152D01*
X87523469Y-93173939D01*
X87504630Y-93241221D01*
X87452407Y-93287637D01*
X87399479Y-93299500D01*
X56824500Y-93299500D01*
X56757461Y-93279815D01*
X56711706Y-93227011D01*
X56700500Y-93175500D01*
X56700500Y-88891533D01*
X57049499Y-88891533D01*
X57075458Y-89022030D01*
X57075461Y-89022040D01*
X57126376Y-89144961D01*
X57126386Y-89144979D01*
X57200301Y-89255601D01*
X57200307Y-89255609D01*
X57294390Y-89349692D01*
X57294398Y-89349698D01*
X57405020Y-89423613D01*
X57405023Y-89423614D01*
X57405031Y-89423620D01*
X57527964Y-89474540D01*
X57527968Y-89474540D01*
X57527969Y-89474541D01*
X57658466Y-89500500D01*
X57658469Y-89500500D01*
X58541533Y-89500500D01*
X58629325Y-89483035D01*
X58672036Y-89474540D01*
X58794969Y-89423620D01*
X58905606Y-89349695D01*
X58999695Y-89255606D01*
X59073620Y-89144969D01*
X59124540Y-89022036D01*
X59150500Y-88891531D01*
X59150500Y-88758469D01*
X59150500Y-88758466D01*
X59124541Y-88627969D01*
X59124540Y-88627968D01*
X59124540Y-88627964D01*
X59073620Y-88505031D01*
X59006335Y-88404332D01*
X58999698Y-88394398D01*
X58999692Y-88394390D01*
X58905609Y-88300307D01*
X58905601Y-88300301D01*
X58858748Y-88268995D01*
X60099499Y-88268995D01*
X60126418Y-88404322D01*
X60126421Y-88404332D01*
X60179221Y-88531804D01*
X60179228Y-88531817D01*
X60255885Y-88646541D01*
X60255888Y-88646545D01*
X60353454Y-88744111D01*
X60353458Y-88744114D01*
X60468182Y-88820771D01*
X60468195Y-88820778D01*
X60595667Y-88873578D01*
X60595672Y-88873580D01*
X60595676Y-88873580D01*
X60595677Y-88873581D01*
X60731004Y-88900500D01*
X60731007Y-88900500D01*
X60868995Y-88900500D01*
X60960041Y-88882389D01*
X61004328Y-88873580D01*
X61131811Y-88820775D01*
X61246542Y-88744114D01*
X61344114Y-88646542D01*
X61420775Y-88531811D01*
X61473580Y-88404328D01*
X61494272Y-88300305D01*
X61500500Y-88268995D01*
X61500500Y-87631004D01*
X61473581Y-87495677D01*
X61473580Y-87495676D01*
X61473580Y-87495672D01*
X61445285Y-87427361D01*
X61420778Y-87368195D01*
X61420771Y-87368182D01*
X61344114Y-87253458D01*
X61344111Y-87253454D01*
X61246545Y-87155888D01*
X61246541Y-87155885D01*
X61131817Y-87079228D01*
X61131804Y-87079221D01*
X61004332Y-87026421D01*
X61004322Y-87026418D01*
X60868995Y-86999500D01*
X60868993Y-86999500D01*
X60731007Y-86999500D01*
X60731005Y-86999500D01*
X60595677Y-87026418D01*
X60595667Y-87026421D01*
X60468195Y-87079221D01*
X60468182Y-87079228D01*
X60353458Y-87155885D01*
X60353454Y-87155888D01*
X60255888Y-87253454D01*
X60255885Y-87253458D01*
X60179228Y-87368182D01*
X60179221Y-87368195D01*
X60126421Y-87495667D01*
X60126418Y-87495677D01*
X60099500Y-87631004D01*
X60099500Y-87631007D01*
X60099500Y-88268993D01*
X60099500Y-88268995D01*
X60099499Y-88268995D01*
X58858748Y-88268995D01*
X58794979Y-88226386D01*
X58794972Y-88226382D01*
X58794969Y-88226380D01*
X58794965Y-88226378D01*
X58794961Y-88226376D01*
X58672040Y-88175461D01*
X58672030Y-88175458D01*
X58541533Y-88149500D01*
X58541531Y-88149500D01*
X57658469Y-88149500D01*
X57658467Y-88149500D01*
X57527969Y-88175458D01*
X57527959Y-88175461D01*
X57405038Y-88226376D01*
X57405020Y-88226386D01*
X57294398Y-88300301D01*
X57294390Y-88300307D01*
X57200307Y-88394390D01*
X57200301Y-88394398D01*
X57126386Y-88505020D01*
X57126376Y-88505038D01*
X57075461Y-88627959D01*
X57075458Y-88627969D01*
X57049500Y-88758466D01*
X57049500Y-88758469D01*
X57049500Y-88891531D01*
X57049500Y-88891533D01*
X57049499Y-88891533D01*
X56700500Y-88891533D01*
X56700500Y-84810001D01*
X66598418Y-84810001D01*
X66619055Y-84966760D01*
X66619056Y-84966762D01*
X66679564Y-85112841D01*
X66775818Y-85238282D01*
X66901259Y-85334536D01*
X67047338Y-85395044D01*
X67125719Y-85405363D01*
X67204099Y-85415682D01*
X67204100Y-85415682D01*
X67204101Y-85415682D01*
X67256354Y-85408802D01*
X67360862Y-85395044D01*
X67506941Y-85334536D01*
X67632382Y-85238282D01*
X67632383Y-85238279D01*
X67635193Y-85236124D01*
X67700363Y-85210930D01*
X67710680Y-85210500D01*
X69430645Y-85210500D01*
X69497684Y-85230185D01*
X69518326Y-85246819D01*
X71467097Y-87195590D01*
X71500582Y-87256913D01*
X71502355Y-87267085D01*
X71502818Y-87270598D01*
X71502818Y-87270600D01*
X71523456Y-87427362D01*
X71583964Y-87573441D01*
X71680218Y-87698882D01*
X71805659Y-87795136D01*
X71951738Y-87855644D01*
X72030119Y-87865963D01*
X72108499Y-87876282D01*
X72108500Y-87876282D01*
X72108501Y-87876282D01*
X72160754Y-87869402D01*
X72265262Y-87855644D01*
X72411341Y-87795136D01*
X72536782Y-87698882D01*
X72633036Y-87573441D01*
X72693544Y-87427362D01*
X72714182Y-87270600D01*
X72693544Y-87113838D01*
X72633036Y-86967759D01*
X72536782Y-86842318D01*
X72411341Y-86746064D01*
X72265262Y-86685556D01*
X72209077Y-86678159D01*
X72104985Y-86664455D01*
X72041089Y-86636188D01*
X72033490Y-86629197D01*
X69893815Y-84489522D01*
X69893813Y-84489520D01*
X69848150Y-84463156D01*
X69802489Y-84436793D01*
X69751557Y-84423146D01*
X69700627Y-84409500D01*
X69700626Y-84409500D01*
X67710680Y-84409500D01*
X67643641Y-84389815D01*
X67635193Y-84383876D01*
X67632383Y-84381720D01*
X67632382Y-84381718D01*
X67506941Y-84285464D01*
X67360862Y-84224956D01*
X67360860Y-84224955D01*
X67204101Y-84204318D01*
X67204099Y-84204318D01*
X67047339Y-84224955D01*
X67047337Y-84224956D01*
X66901260Y-84285463D01*
X66775818Y-84381718D01*
X66679563Y-84507160D01*
X66619056Y-84653237D01*
X66619055Y-84653239D01*
X66598418Y-84809998D01*
X66598418Y-84810001D01*
X56700500Y-84810001D01*
X56700500Y-82968995D01*
X60099499Y-82968995D01*
X60126418Y-83104322D01*
X60126421Y-83104332D01*
X60179221Y-83231804D01*
X60179228Y-83231817D01*
X60255885Y-83346541D01*
X60255888Y-83346545D01*
X60353454Y-83444111D01*
X60353458Y-83444114D01*
X60468182Y-83520771D01*
X60468195Y-83520778D01*
X60595667Y-83573578D01*
X60595672Y-83573580D01*
X60595676Y-83573580D01*
X60595677Y-83573581D01*
X60731004Y-83600500D01*
X60731007Y-83600500D01*
X60868995Y-83600500D01*
X60960041Y-83582389D01*
X61004328Y-83573580D01*
X61131811Y-83520775D01*
X61246542Y-83444114D01*
X61344114Y-83346542D01*
X61420775Y-83231811D01*
X61473580Y-83104328D01*
X61500500Y-82968993D01*
X61500500Y-82331007D01*
X61500500Y-82331004D01*
X61473581Y-82195677D01*
X61473580Y-82195676D01*
X61473580Y-82195672D01*
X61473578Y-82195667D01*
X61420778Y-82068195D01*
X61420771Y-82068182D01*
X61344114Y-81953458D01*
X61344111Y-81953454D01*
X61246545Y-81855888D01*
X61246541Y-81855885D01*
X61131817Y-81779228D01*
X61131804Y-81779221D01*
X61004332Y-81726421D01*
X61004322Y-81726418D01*
X60868995Y-81699500D01*
X60868993Y-81699500D01*
X60731007Y-81699500D01*
X60731005Y-81699500D01*
X60595677Y-81726418D01*
X60595667Y-81726421D01*
X60468195Y-81779221D01*
X60468182Y-81779228D01*
X60353458Y-81855885D01*
X60353454Y-81855888D01*
X60255888Y-81953454D01*
X60255885Y-81953458D01*
X60179228Y-82068182D01*
X60179221Y-82068195D01*
X60126421Y-82195667D01*
X60126418Y-82195677D01*
X60099500Y-82331004D01*
X60099500Y-82331007D01*
X60099500Y-82968993D01*
X60099500Y-82968995D01*
X60099499Y-82968995D01*
X56700500Y-82968995D01*
X56700500Y-81841533D01*
X57049499Y-81841533D01*
X57075458Y-81972030D01*
X57075461Y-81972040D01*
X57126376Y-82094961D01*
X57126386Y-82094979D01*
X57200301Y-82205601D01*
X57200307Y-82205609D01*
X57294390Y-82299692D01*
X57294398Y-82299698D01*
X57405020Y-82373613D01*
X57405023Y-82373614D01*
X57405031Y-82373620D01*
X57405037Y-82373622D01*
X57405038Y-82373623D01*
X57468721Y-82400001D01*
X57527964Y-82424540D01*
X57527968Y-82424540D01*
X57527969Y-82424541D01*
X57658466Y-82450500D01*
X57658469Y-82450500D01*
X58541533Y-82450500D01*
X58629325Y-82433035D01*
X58672036Y-82424540D01*
X58794969Y-82373620D01*
X58905606Y-82299695D01*
X58999695Y-82205606D01*
X59073620Y-82094969D01*
X59124540Y-81972036D01*
X59143750Y-81875464D01*
X59150500Y-81841533D01*
X59150500Y-81708466D01*
X59124541Y-81577969D01*
X59124540Y-81577968D01*
X59124540Y-81577964D01*
X59073620Y-81455031D01*
X58999695Y-81344394D01*
X58999692Y-81344390D01*
X58905609Y-81250307D01*
X58905601Y-81250301D01*
X58794979Y-81176386D01*
X58794972Y-81176382D01*
X58794969Y-81176380D01*
X58794965Y-81176378D01*
X58794961Y-81176376D01*
X58672040Y-81125461D01*
X58672030Y-81125458D01*
X58541533Y-81099500D01*
X58541531Y-81099500D01*
X57658469Y-81099500D01*
X57658467Y-81099500D01*
X57527969Y-81125458D01*
X57527959Y-81125461D01*
X57405038Y-81176376D01*
X57405020Y-81176386D01*
X57294398Y-81250301D01*
X57294390Y-81250307D01*
X57200307Y-81344390D01*
X57200301Y-81344398D01*
X57126386Y-81455020D01*
X57126376Y-81455038D01*
X57075461Y-81577959D01*
X57075458Y-81577969D01*
X57049500Y-81708466D01*
X57049500Y-81708469D01*
X57049500Y-81841531D01*
X57049500Y-81841533D01*
X57049499Y-81841533D01*
X56700500Y-81841533D01*
X56700500Y-76024500D01*
X56720185Y-75957461D01*
X56772989Y-75911706D01*
X56824500Y-75900500D01*
X94975500Y-75900500D01*
X95042539Y-75920185D01*
G37*
%TD.AperFunction*%
%TD*%
M02*
